<?xml version="1.0" encoding="UTF-8" standalone="no"?>
<!-- Created with Inkscape (http://www.inkscape.org/) -->

<svg
   width="297mm"
   height="210mm"
   viewBox="0 0 297 210"
   version="1.1"
   id="svg1"
   xml:space="preserve"
   inkscape:version="1.4 (e7c3feb100, 2024-10-09)"
   sodipodi:docname="mountain_bg.svg"
   xmlns:inkscape="http://www.inkscape.org/namespaces/inkscape"
   xmlns:sodipodi="http://sodipodi.sourceforge.net/DTD/sodipodi-0.dtd"
   xmlns="http://www.w3.org/2000/svg"
   xmlns:svg="http://www.w3.org/2000/svg"><sodipodi:namedview
     id="namedview1"
     pagecolor="#ffffff"
     bordercolor="#000000"
     borderopacity="0.25"
     inkscape:showpageshadow="2"
     inkscape:pageopacity="0.0"
     inkscape:pagecheckerboard="0"
     inkscape:deskcolor="#d1d1d1"
     inkscape:document-units="mm"
     inkscape:zoom="1"
     inkscape:cx="515"
     inkscape:cy="408.5"
     inkscape:window-width="1918"
     inkscape:window-height="1042"
     inkscape:window-x="0"
     inkscape:window-y="18"
     inkscape:window-maximized="1"
     inkscape:current-layer="svg1" /><defs
     id="defs1" /><g
     inkscape:groupmode="layer"
     id="layer2"
     inkscape:label="Layer 2"><path
       style="fill:#1a1a1a;stroke:#ffffff;stroke-width:2;stroke-opacity:0"
       id="path4"
       d="m 22.136542,72.307272 c 0.795176,0.16075 1.597688,0.276997 2.40562,0.347961 0.55636,0.04378 1.114653,0.04665 1.672371,0.0476 0.49875,0.02365 0.979815,-0.0036 1.468215,-0.09838 0.527272,-0.07792 1.052751,-0.141316 1.578509,-0.229377 0.607272,-0.0858 1.197928,-0.259255 1.782821,-0.438987 0.611116,-0.207994 1.205582,-0.459856 1.819511,-0.659452 0.708345,-0.183933 1.405191,-0.408414 2.11551,-0.584994 0.736608,-0.142476 1.452139,-0.369438 2.1741,-0.569328 0.863695,-0.294277 1.754214,-0.489569 2.634059,-0.723905 0.789215,-0.20733 1.60184,-0.314439 2.391616,-0.517954 0.54976,-0.1617 1.114206,-0.242771 1.684589,-0.277516 0.551223,1.03e-4 1.089396,-0.01849 1.632744,-0.109545 0.758751,-0.116094 1.530223,-0.126405 2.296385,-0.142373 0.682958,-0.0086 1.410795,-0.0409 2.057749,0.213485 1.228654,0.520173 3.057742,1.663014 -2.830129,-1.650857 -0.05991,-0.03372 0.11289,0.07852 0.168751,0.118589 0.195443,0.1402 0.123156,0.08359 0.304372,0.256669 0.303604,0.316841 0.529489,0.668814 0.674216,1.081217 0.175027,0.554413 0.323752,1.119204 0.443117,1.688415 0.09832,0.515607 0.104782,1.040291 0.18937,1.557703 0.09397,0.680661 0.304765,1.340643 0.561451,1.975982 0.27238,0.644784 0.63064,1.24165 0.986226,1.841815 0.306285,0.513011 0.513001,1.079711 0.666406,1.655225 0.133882,0.542555 0.263658,1.08372 0.430194,1.617205 0.107456,0.420571 0.248084,0.833358 0.424985,1.229701 0.237598,0.502193 0.538705,0.966939 0.861417,1.417521 1.23839,1.275059 2.865816,2.375869 4.637751,2.660965 0.485603,0.05733 0.975649,0.05158 1.463773,0.05049 0.484471,-0.0027 0.968944,-0.0051 1.45342,-0.0064 0.483349,-0.0011 0.966698,-0.0011 1.450044,-0.0013 0.50306,0.03396 0.997759,0.14613 1.504026,0.190024 0.09505,0.0063 0.191027,0.0042 0.285144,0.01889 0.167953,0.02619 0.32906,0.08716 0.496578,0.115994 0.352872,0.06073 0.710621,0.07507 1.067337,0.09665 0.897155,0.0064 1.785239,0.09487 2.677552,0.176879 0.720135,0.06846 1.442387,0.109257 2.165599,0.120394 0.665831,-0.01783 1.322816,0.01707 1.984255,0.08516 0.822714,0.07046 1.646815,0.121205 2.472045,0.14887 0.538012,0.01553 1.07629,0.0155 1.614474,0.01548 0.539263,-0.0021 1.078524,-0.0029 1.617792,-0.0026 0.574472,0.03453 1.136039,-0.09691 1.703128,-0.167208 0.500081,-0.05789 -0.0109,-0.05696 0.491923,-0.06284 0.06637,0.01664 0.262879,0.0076 0.402031,0.06063 0.172371,0.06574 0.309175,0.02636 0.597031,0.245224 0.230835,0.17551 0.274767,0.200687 0.643944,0.448599 0.145739,0.186778 0.266287,0.160913 0.776643,0.560496 0.259926,0.252536 0.321236,0.153495 0.998978,0.475123 0.312429,0.188515 0.684794,0.422329 0.854995,0.532206 0.191484,0.123617 0.234562,0.174594 0.576131,0.352675 0.09021,0.0573 0.219424,0.08677 0.318045,0.121248 0.173435,0.06064 0.169277,0.02584 0.351198,0.123556 0.229623,0.120535 0.07671,0.02722 0.293172,0.173094 0.167923,0.07145 0.166676,0.102291 0.327424,0.166791 0.09601,0.03852 0.274849,0.09394 0.388534,0.133795 0.208084,0.07295 0.117866,0.03846 0.305865,0.111097 0.169418,0.03232 0.198707,0.05396 0.357967,0.07683 0.210432,0.02789 0.260676,0.07371 0.438124,0.07224 0.330059,-0.0027 0.406929,-0.01074 0.505425,-0.01318 0.443691,-0.01109 0.887469,-0.01746 1.33127,-0.02164 0.425257,0.01355 0.835316,0.147434 1.261901,0.193863 0.575882,0.086 1.150168,0.183771 1.733148,0.22934 0.59363,0.127805 1.192363,0.220372 1.797539,0.268166 0.517319,0.05244 1.020226,0.03854 1.505956,-0.156686 0.386254,-0.147669 0.762121,-0.319836 1.131332,-0.506815 0.429627,-0.183134 0.881186,-0.307311 1.314876,-0.478806 0.482438,-0.210753 0.916021,-0.502316 1.311047,-0.848465 0.362334,-0.363567 0.713606,-0.73728 1.105956,-1.068824 0.39578,-0.362792 0.82741,-0.678191 1.24977,-1.00819 0.41464,-0.351864 0.87924,-0.642702 1.27289,-1.018884 0.37086,-0.336349 0.68993,-0.718465 1.06167,-1.056015 0.47562,-0.500732 1.00261,-0.952805 1.54276,-1.382152 0.43658,-0.366035 0.78096,-0.822772 1.09636,-1.293492 0.32975,-0.481182 0.63407,-0.977704 0.9906,-1.439929 0.47061,-0.626086 0.9628,-1.228577 1.35968,-1.905571 0.33349,-0.550294 0.58524,-1.14426 0.90943,-1.699353 0.29372,-0.54678 0.58909,-1.094078 0.94947,-1.600412 0.36295,-0.434406 0.73236,-0.864224 1.06336,-1.324054 0.32069,-0.431152 0.69183,-0.822944 1.04004,-1.233302 0.39384,-0.505071 0.75866,-1.032071 1.18328,-1.511954 0.39264,-0.452059 0.84461,-0.842364 1.28013,-1.249868 0.4566,-0.428339 0.92272,-0.854347 1.42052,-1.234903 0.53708,-0.349165 1.00763,-0.785225 1.51267,-1.177321 0.39365,-0.306129 0.71359,-0.706753 1.12664,-0.985531 0.42027,-0.321336 0.81383,-0.667033 1.2645,-0.948481 0.49767,-0.358455 0.94305,-0.779566 1.46,-1.111684 0.46536,-0.331779 0.94777,-0.632108 1.45519,-0.894776 0.51665,-0.275227 1.02894,-0.556172 1.50484,-0.898755 0.44243,-0.384709 0.98928,-0.605271 1.48461,-0.910278 0.63378,-0.325032 1.26704,-0.658958 1.91515,-0.954185 0.44571,-0.210852 0.82675,-0.525325 1.25141,-0.77058 0.35282,-0.249336 0.64071,-0.583481 1.01812,-0.796007 0.33923,-0.262848 0.7232,-0.454843 1.07612,-0.698056 0.42999,-0.318111 0.87817,-0.612156 1.32931,-0.898985 0.29971,-0.303443 0.61781,-0.375087 1.02041,-0.24978 0.50911,0.171154 1.0204,0.315299 1.55211,0.399595 0.39967,0.215199 0.8759,0.181568 1.28402,0.348853 0.40211,0.140912 0.81797,0.248999 1.21085,0.415348 0.45402,0.22606 0.95179,0.328605 1.4237,0.503494 0.52846,0.192067 1.0541,0.397746 1.58018,0.599668 0.51757,0.159533 0.99771,0.382108 1.54332,0.407355 0.44502,-0.129717 0.8995,-0.193154 1.36015,-0.229888 0.53694,-0.04294 0.9688,-0.06378 1.49344,0.06073 0.50147,0.10205 1.01714,0.119962 1.52755,0.132152 0.5805,-0.03685 1.13869,0.05278 1.70748,0.147494 0.52929,0.08654 1.06617,0.09336 1.60103,0.09951 0.59524,0.0058 1.19052,0.0082 1.78578,0.0058 0.55242,0.09409 1.10643,0.170836 1.66532,0.212063 0.49983,-0.01003 0.97758,0.133073 1.46945,0.201436 0.47483,0.144065 0.95683,0.243004 1.4338,0.377571 0.52388,0.09316 1.04254,0.207883 1.56691,0.300278 0.49363,0.02291 0.94796,0.208603 1.43106,0.291153 0.53836,0.162052 1.09155,0.291901 1.64361,0.405696 0.60628,0.169291 1.22207,0.284223 1.82981,0.445608 0.56546,0.131427 1.12195,0.291907 1.67721,0.459897 0.4777,0.161057 0.92244,0.401753 1.39956,0.559736 0.37175,0.198975 0.79065,0.337585 1.13376,0.583155 0.0567,0.02925 0.22526,0.119703 0.17006,0.08775 -6.9265,-4.009532 -1.26837,-0.754147 0.98973,0.550379 -6.85898,-4.007668 -0.93241,-0.430329 1.41772,0.780224 0.48662,0.187751 0.97224,0.37107 1.48636,0.468307 0.54951,0.06051 1.11343,0.118248 1.66212,0.03433 0.50045,-0.09864 1.00657,-0.152924 1.51536,-0.180737 0.55083,-0.0036 1.11819,-0.110781 1.63306,0.12251 -1.07908,-0.604266 -2.15815,-1.208535 -3.23722,-1.812803 0.1434,0.0852 0.20406,0.09463 0.28254,0.26122 0.13183,0.279808 0.13357,0.627444 0.15865,0.928272 0.0562,0.576011 0.0133,1.142048 -0.0804,1.710066 -0.10182,0.463613 -0.0535,0.923708 0.0696,1.376296 0.17416,0.581996 0.50644,1.090933 0.88268,1.560605 0.30589,0.439486 0.7245,0.761831 1.13773,1.09097 1.48792,1.104966 3.18889,1.879452 4.7993,2.784967 0.5546,0.263279 1.11784,0.497991 1.66962,0.765577 0.50011,0.21776 0.99616,0.435491 1.49153,0.66089 1.39544,0.680648 4.0089,2.221981 -1.92957,-1.177846 1.32327,0.804881 2.69217,1.533848 4.01657,2.335797 1.05304,0.637635 -2.12971,-1.23548 -3.20014,-1.843482 -0.14799,-0.08406 0.27888,0.195263 0.41607,0.295998 0.20638,0.145132 0.37809,0.352718 0.59624,0.481698 1.19466,0.706331 2.42065,1.359979 3.60079,2.090306 0.38211,0.236463 -9.61411,-5.556766 0.3821,0.23233 -7.00436,-4.229631 -1.13126,-0.378706 1.25638,0.674606 0.53511,0.211291 1.04886,0.431064 1.611,0.561165 0.59586,0.129707 1.17863,0.293164 1.78581,0.368245 0.50391,0.03377 1.0171,0.0967 1.51641,0.0043 0.59659,-0.09172 1.1876,-0.189552 1.76985,-0.352324 0.61329,-0.134554 1.21685,-0.304647 1.82869,-0.444513 0.46251,-0.04151 0.89065,-0.217363 1.34505,-0.299678 0.40937,-0.186306 0.85277,-0.274574 1.28949,-0.372189 0.69429,-0.222049 1.42306,-0.27908 2.13226,-0.427146 0.59288,-0.127828 1.16366,-0.324057 1.76508,-0.416441 0.54421,-0.153197 1.10251,-0.233707 1.66496,-0.276974 0.49154,-0.01297 0.97754,0.115395 1.46789,0.166301 0.16077,0.03445 0.32819,0.0049 0.48944,0.03194 0.20491,0.03429 0.3301,0.165161 0.49854,0.272272 -1.07748,-0.619572 -2.15497,-1.239142 -3.23245,-1.858714 1.29061,0.847839 0.80443,0.533657 3.76404,2.162569 1.08648,0.597977 -4.28316,-2.501484 -3.22837,-1.849233 1.02317,0.632695 2.51669,1.832035 3.96712,2.177936 0.4229,0.196614 0.8925,0.298119 1.30118,0.520734 0.41024,0.195487 0.85152,0.31156 1.26776,0.49021 0.4442,0.216132 0.95572,0.164732 1.41179,0.318055 0.49726,0.123397 0.97985,0.323945 1.43541,0.558599 0.46913,0.147153 0.87814,0.415904 1.32003,0.622453 -6.97715,-5.291166 -4.0459,-2.308103 -3.03612,-1.728107 0.60884,0.349702 2.78975,1.878827 4.20965,2.306884 0.49711,0.220077 1.01289,0.381992 1.49337,0.639087 0.58532,0.293765 1.16544,0.598535 1.74266,0.908881 -6.9484,-4.138049 -0.49357,-0.0019 1.88869,0.910958 0.57674,0.27967 1.19728,0.444317 1.80804,0.629581 0.43415,0.100412 0.83138,0.303837 1.22994,0.492911 0.073,0.0172 0.1486,0.0259 0.21909,0.05161 0.13496,0.0492 0.26264,0.11652 0.3924,0.178134 0.0681,0.03233 0.26325,0.146949 0.19786,0.109452 -6.28458,-3.60413 -2.09623,-1.194953 0.42465,0.25812 0.58205,0.231431 1.16118,0.453504 1.72428,0.729305 0.68511,0.299099 1.3831,0.564571 2.08229,0.829072 0.70472,0.246486 1.41962,0.46836 2.0996,0.778521 0.51978,0.165632 0.95295,0.50447 1.45184,0.709623 0.442,0.207923 0.87382,0.438923 1.32162,0.635095 0.49436,0.303618 1.0582,0.44744 1.59118,0.660313 0.51725,0.152746 1.03382,0.31509 1.5601,0.435792 0.51759,0.229881 1.09337,0.231511 1.63275,0.374002 0.48023,0.172853 1.0105,0.11434 1.48969,0.267557 0.41367,0.138769 0.8494,0.168701 1.28182,0.189998 0.46188,0.134286 0.93874,0.191963 1.41682,0.227234 0.54406,-0.01373 1.0687,0.126405 1.60598,0.194173 0.51196,0.05881 1.02758,0.06836 1.54231,0.0742 0.56815,0.04542 1.12129,-0.05963 1.68162,-0.132419 0.56115,-0.07251 1.12657,-0.09562 1.69171,-0.10695 0.60276,0.03614 1.18961,-0.05708 1.78385,-0.137835 0.25982,1.83e-4 0.5298,-0.0975 0.79019,-0.07905 0.0479,0.0034 0.0894,0.03875 0.13704,0.04491 0.0327,0.0042 0.19051,-0.02304 0.22635,-0.02874 0.26408,-0.245668 0.61447,-0.229859 0.95479,-0.252111 0.60051,2.65e-4 1.21981,-0.106968 1.8128,0.01111 0.43922,0.115636 0.89017,0.158009 1.34209,0.181948 0.47539,0.01887 0.95128,0.01752 1.42696,0.01757 0.49781,-0.0114 0.99747,0.03418 1.48954,-0.04899 0.59857,-0.09172 1.19554,-0.150337 1.78935,-0.269441 0.52736,-0.112522 1.03589,-0.280014 1.5722,-0.355428 0.43207,-0.05923 0.84258,-0.200941 1.27867,-0.25331 0.45347,-0.04197 0.90942,-0.04193 1.36443,-0.04391 0.55173,-0.0416 1.08818,0.06641 1.63396,0.12428 0.71554,0.02652 1.41208,0.191722 2.12132,0.273653 0.65257,0.08724 1.3153,0.03269 1.96551,0.128153 0.57494,0.09786 1.15467,0.155313 1.73675,0.184674 0.55531,0.04016 1.12046,-0.03742 1.669,0.06384 0.51858,0.08704 1.03454,0.160372 1.54947,0.265753 0.54645,0.06666 1.06688,0.240533 1.60917,0.331205 0.24567,0.06033 0.50655,0.02572 0.75351,0.06681 0.20016,0.0333 0.40283,0.116194 0.6028,0.1593 0.45252,0.0281 0.88186,0.1471 1.32482,0.23172 0.47824,0.145629 0.94562,0.324926 1.42936,0.45203 0.45723,0.155836 0.20965,0.05719 0.65256,0.241633 0.46834,0.140721 0.10516,0.04155 0.59021,0.149494 0.0257,0.0041 0.17287,-0.0062 0.49674,0.149971 0.55621,0.12106 0.1668,0.03652 0.50186,0.1341 0.10046,0.06155 0.94705,0.237789 1.04902,0.296813 0.0982,0.04274 0.88734,0.39382 1.34541,0.463569 1.13409,0.172687 0.58573,-0.191142 1.06945,0.217202 0.48362,0.408264 0.72501,0.151898 1.21226,0.06801 0.92101,0.189831 0.36267,-0.118847 1.59537,0.380022 l 0.74935,0.03915 0.45172,0.05927 c 0.42924,0.05632 0.74592,-0.502373 0.70842,-0.525354 -1.43843,-0.883317 -3.19367,-0.835117 -3.19367,-0.835117 -0.40177,-0.09955 -0.26429,-0.08657 -0.89521,-0.197051 -0.33771,-0.05914 -0.64181,-0.230737 -1.01579,-0.30807 -0.23202,-0.04798 -0.30416,-0.0094 -0.68137,-0.135933 -0.22002,-0.05387 0.21462,-0.07773 -0.49941,-0.166131 -1.92893,-0.606878 -2.70716,-1.141852 -4.45732,-1.548497 -0.45664,-0.198689 -0.91268,-0.394642 -1.3944,-0.525968 -0.47935,-0.10795 -0.94885,-0.249634 -1.42336,-0.376497 -0.4795,-0.155252 -0.95855,-0.316767 -1.45089,-0.427098 -0.43953,-0.09588 -0.88413,-0.14741 -1.32392,-0.240914 -0.44866,-0.105455 -0.90522,-0.128053 -1.35811,-0.211066 -0.53385,-0.114935 -1.06315,-0.248174 -1.60361,-0.330967 -0.52062,-0.100809 -1.04773,-0.16568 -1.57253,-0.240583 -0.56004,-0.02479 -1.12146,-0.0076 -1.681,-0.04875 -0.57573,-0.0427 -1.147,-0.120385 -1.71955,-0.192781 -0.6526,-0.04261 -1.3089,-0.03935 -1.9575,-0.13467 -0.70617,-0.102873 -1.41039,-0.214892 -2.12278,-0.268015 -0.55795,-0.07097 -1.11355,-0.126643 -1.67718,-0.09434 -0.46756,0.0069 -0.93709,0.01461 -1.40004,0.08743 -0.42843,0.07828 -0.84378,0.213879 -1.27792,0.261684 -0.5288,0.103648 -1.03997,0.275233 -1.57128,0.366908 -0.58735,0.107651 -1.18312,0.154636 -1.7739,0.240385 -0.48903,0.02019 -0.97862,0.0086 -1.46798,0.0109 -0.47075,-0.0024 -0.94214,-0.0043 -1.41171,-0.04169 -0.44716,-0.04331 -0.88619,-0.13089 -1.33104,-0.190217 -0.61853,-0.01558 -1.23799,0.01312 -1.85499,0.05584 -0.20545,0.02384 -0.3283,0.02882 -0.52098,0.08104 -0.12915,0.035 -0.2796,0.149137 -0.41008,0.16814 -0.0153,0.0021 -0.0277,-0.01397 -0.0415,-0.02096 -0.38336,-0.01431 -0.7624,0.05496 -1.14399,0.10165 -0.58711,0.07883 -1.17249,0.10968 -1.76524,0.100409 -0.57083,0.02275 -1.14071,0.06446 -1.70677,0.143939 -0.55122,0.07049 -1.10047,0.112456 -1.65678,0.0789 -0.50509,-0.01278 -1.01074,-0.03494 -1.51109,-0.11003 -0.53852,-0.08159 -1.07368,-0.16814 -1.61954,-0.183337 -0.4781,-0.05661 -0.94596,-0.167439 -1.42375,-0.22206 -0.42384,-0.04282 -0.83737,-0.127553 -1.24966,-0.234183 -0.4991,-0.06089 -0.9947,-0.137525 -1.4824,-0.263154 -0.55109,-0.09605 -1.09553,-0.20904 -1.62708,-0.387041 -0.51275,-0.144153 -1.03141,-0.272333 -1.52824,-0.466616 -0.54221,-0.192297 -1.06657,-0.421839 -1.57705,-0.687724 -0.439,-0.218001 -0.88404,-0.42337 -1.32363,-0.64018 -0.47047,-0.256405 -0.9487,-0.495528 -1.45063,-0.686303 -0.69397,-0.270005 -1.40015,-0.505211 -2.09974,-0.759997 -0.69702,-0.264634 -1.38902,-0.544624 -2.06636,-0.856395 -0.57119,-0.260726 -1.17112,-0.457002 -1.72103,-0.762627 1.05669,0.611094 4.24092,2.41923 3.17008,1.833284 -1.56251,-0.854982 -2.83616,-1.810435 -4.42878,-2.41455 -0.40065,-0.189209 -0.82973,-0.316069 -1.25391,-0.441135 -0.60137,-0.192407 -1.20597,-0.372914 -1.77561,-0.651356 -0.31812,-0.144487 -0.63907,-0.285835 -0.95258,-0.440151 -0.097,-0.04774 -0.38112,-0.204057 -0.28781,-0.149473 1.40808,0.823685 7.57163,4.369154 -0.6254,-0.350933 -0.58135,-0.308798 -1.16385,-0.616529 -1.75762,-0.900795 -0.50288,-0.219689 -1.01611,-0.415687 -1.52651,-0.617289 -0.29764,-0.133564 -0.11351,-0.04631 -0.40321,-0.194765 -0.0655,-0.03359 -0.26072,-0.136975 -0.19712,-0.09983 1.06972,0.624787 2.14364,1.242343 3.2158,1.862939 0.0606,0.03507 -0.12074,-0.07091 -0.18111,-0.106365 -1.19367,-0.691388 -2.38734,-1.382773 -3.58101,-2.074159 -0.42925,-0.229711 -0.8771,-0.413189 -1.32188,-0.609896 -0.48432,-0.203697 -0.97363,-0.398656 -1.49163,-0.499893 -0.47187,-0.06935 -0.93739,-0.162647 -1.37593,-0.358661 -0.42721,-0.147836 -0.844,-0.323747 -1.25715,-0.506945 -0.44507,-0.157575 -0.8784,-0.345818 -1.32709,-0.493601 -0.11985,-0.05358 -0.46553,-0.242583 -0.35196,-0.176736 1.07364,0.62248 4.31026,2.46213 3.22235,1.864952 -12.0458,-6.61221 2.32579,1.030674 -0.54081,-0.297995 -2.67651,-1.560269 -2.60521,-2.077577 -4.63273,-2.258049 -0.5028,-0.06675 -1.00671,-0.172903 -1.51536,-0.09582 -0.56782,0.06625 -1.12567,0.180858 -1.68368,0.303646 -0.59121,0.122608 -1.16229,0.321797 -1.75755,0.425945 -0.71993,0.122965 -1.43755,0.253767 -2.14569,0.435263 -0.43888,0.101878 -0.87133,0.215078 -1.29757,0.360154 -0.44717,0.109548 -0.8884,0.238379 -1.3434,0.314592 -0.60604,0.157033 -1.2145,0.301771 -1.82175,0.454052 -0.57834,0.132315 -1.1628,0.225694 -1.75161,0.298217 -0.48552,0.01341 -0.97256,-0.01386 -1.45327,-0.08472 -0.59014,-0.102685 -1.16702,-0.263128 -1.75007,-0.398952 -0.53981,-0.167433 -1.05712,-0.399743 -1.57528,-0.62426 -0.22839,-0.117409 -0.45776,-0.231426 -0.68158,-0.357458 -0.0701,-0.03948 -0.27907,-0.160276 -0.20963,-0.119642 5.32616,3.116879 3.21811,1.880294 -0.35197,-0.224726 10.73371,6.225595 -7.87279,-4.570074 2.78814,1.625203 0.41788,0.24284 -1.02805,-0.622917 -0.61045,-0.447866 -1.06683,-1.036126 -3.20712,-1.936593 -3.96999,-2.431668 -1.02738,-0.666727 2.11556,1.234738 3.17776,1.844468 0.14218,0.08162 -0.54488,-0.360151 -0.41777,-0.259585 -1.60383,-0.925031 -3.18601,-1.929845 -4.86995,-2.717189 -0.48897,-0.228547 -0.99686,-0.416703 -1.48175,-0.655389 -0.5567,-0.249809 -1.11468,-0.499877 -1.65445,-0.784735 -0.33439,-0.176067 -0.20208,-0.104363 -0.52938,-0.284697 -0.087,-0.04792 -0.34661,-0.194048 -0.26078,-0.144079 5.56537,3.240349 3.87907,2.321001 2.75856,1.58333 -0.43143,-0.279662 -0.85702,-0.598302 -1.18706,-0.995812 -0.35794,-0.443855 -0.73763,-0.865812 -0.93718,-1.413428 -0.12275,-0.39864 -0.24761,-0.799997 -0.15456,-1.221616 0.0982,-0.597649 0.17454,-1.188572 0.1122,-1.796505 -0.13581,-2.526816 -0.5164,-1.732907 -3.87511,-3.563466 -0.56793,-0.08171 -1.14466,-0.04062 -1.71581,-0.01177 -0.50842,0.04374 -1.01103,0.125073 -1.51689,0.189878 -0.53217,0.01265 -1.07006,-0.01508 -1.5895,-0.138824 -0.48775,-0.137261 -0.9695,-0.313 -1.41865,-0.548511 -3.94126,-2.222897 10.25555,5.97747 -1.41825,-0.784984 -0.3853,-0.201837 -0.0664,-0.03163 -0.43012,-0.234072 -0.0679,-0.03777 -0.27159,-0.150762 -0.20444,-0.111738 6.6402,3.859035 1.73625,0.98757 -0.52772,-0.302774 -0.39126,-0.174791 -0.75975,-0.398579 -1.16964,-0.532548 -0.46091,-0.199689 -0.93106,-0.376153 -1.40904,-0.531349 -0.55721,-0.166788 -1.1236,-0.301908 -1.68653,-0.447845 -0.60906,-0.15426 -1.22851,-0.265451 -1.83498,-0.431411 -0.55444,-0.130783 -1.10614,-0.272983 -1.65889,-0.409379 -0.47262,-0.112998 -0.94291,-0.220959 -1.42632,-0.280239 -0.51811,-0.104566 -1.04106,-0.18973 -1.55094,-0.330245 -0.48233,-0.132283 -0.97394,-0.236381 -1.46259,-0.341074 -0.4924,-0.08467 -0.98227,-0.168389 -1.4835,-0.178861 -0.56112,-0.05687 -1.11748,-0.161965 -1.68169,-0.180999 -0.59277,-0.0016 -1.18564,0.0026 -1.77828,-0.01252 -0.52767,-0.01947 -1.05499,-0.05151 -1.57547,-0.146378 -0.57483,-0.08724 -1.1507,-0.09895 -1.7315,-0.107706 -0.50511,-0.02939 -1.00888,-0.07353 -1.50431,-0.181496 -0.51503,-0.06279 -1.03505,-0.007 -1.55046,0.03071 -0.43995,0.04873 -0.87858,0.173664 -1.31993,0.154363 -0.50376,-0.101015 -0.98003,-0.313933 -1.46746,-0.471654 -0.5322,-0.200919 -1.05616,-0.424813 -1.59995,-0.593439 -0.48396,-0.142878 -0.94474,-0.340294 -1.41746,-0.515398 -0.4115,-0.131355 -0.81496,-0.285975 -1.23344,-0.395264 -0.44019,-0.07836 -0.86258,-0.214566 -1.29794,-0.312565 -0.52949,-0.114816 -1.03856,-0.310256 -1.57585,-0.384112 -0.46525,0.01561 -0.82975,0.159816 -1.17443,0.48061 -0.4425,0.300657 -0.89431,0.587121 -1.32821,0.900433 -0.36102,0.227481 -0.73654,0.43244 -1.0788,0.689004 -0.35053,0.246462 -0.65397,0.553048 -1.01135,0.790842 -0.40093,0.256749 -0.78667,0.538237 -1.21803,0.744318 -0.64698,0.32362 -1.298,0.640488 -1.93392,0.985438 -0.51161,0.295651 -1.05364,0.541436 -1.50635,0.929503 -0.47239,0.318211 -0.96773,0.598601 -1.47366,0.85984 -0.51576,0.274492 -1.00072,0.59749 -1.48095,0.929658 -0.49828,0.350589 -0.94841,0.761204 -1.45074,1.105787 -0.45235,0.294132 -0.85705,0.64639 -1.29185,0.964321 -0.39063,0.313243 -0.73208,0.684255 -1.12165,1.000091 -0.50281,0.394864 -0.9749,0.828879 -1.51062,1.180692 -0.49569,0.401908 -0.98122,0.81983 -1.44351,1.259594 -0.44601,0.415534 -0.89672,0.826715 -1.29974,1.285698 -0.41806,0.487196 -0.77754,1.020104 -1.1876,1.514295 -0.35657,0.416497 -0.73575,0.815711 -1.05592,1.260854 -0.33391,0.460586 -0.71143,0.8866 -1.0653,1.331391 -0.35457,0.522091 -0.66815,1.070652 -0.96483,1.627518 -0.32424,0.555868 -0.57157,1.151676 -0.89913,1.706017 -0.3832,0.664642 -0.87304,1.247498 -1.33697,1.856142 -0.36896,0.465379 -0.67744,0.970585 -1.01444,1.458958 -0.29539,0.437944 -0.62118,0.858745 -1.02928,1.19834 -0.53392,0.448445 -1.06678,0.899083 -1.55491,1.398093 -0.3737,0.337505 -0.701462,0.715206 -1.072829,1.054124 -0.396801,0.353586 -0.837819,0.655021 -1.247947,0.992796 -0.433022,0.330186 -0.863422,0.662289 -1.269542,1.025787 -0.377187,0.344273 -0.73301,0.709816 -1.102916,1.061558 -0.375285,0.304419 -0.774612,0.570241 -1.233175,0.733872 -0.452067,0.153287 -0.904862,0.308817 -1.340276,0.505339 -0.364339,0.161372 -0.715695,0.352165 -1.100201,0.464343 -0.465637,0.104881 -0.935177,0.08075 -1.407575,0.02938 -0.599766,-0.06666 -1.190686,-0.185738 -1.788917,-0.262832 -0.582287,-0.06762 -1.156996,-0.177215 -1.738042,-0.252735 -0.429435,-0.07185 -0.831029,-0.137394 -1.24828,-0.20153 -0.03148,-0.01771 -0.047,-0.02647 -0.07133,-0.05632 -0.02819,-0.01914 -0.02381,-0.02417 -0.04363,-0.03246 -0.03769,-0.01576 -0.05005,-0.04124 -0.07441,-0.06123 -0.02083,-0.0172 -0.05349,-0.05994 -0.08645,-0.106486 -0.188195,-0.160648 -0.153467,-0.129335 -0.190267,-0.16195 -0.152734,-0.09416 -0.06643,-0.04742 -0.291722,-0.155263 0,0 -0.07313,-0.02598 -0.31646,-0.129791 -0.39298,-0.215629 -0.297539,-0.223322 -0.479474,-0.326925 -0.33176,-0.188923 -0.307082,-0.209982 -0.583003,-0.391671 -0.306667,-0.260373 -0.224267,-0.120097 -0.444077,-0.321873 -0.427618,-0.204409 -0.290424,-0.183005 -0.428409,-0.250095 -0.213288,-0.103704 -0.420756,-0.206355 -0.61331,-0.283308 -0.40737,-0.162803 -0.602327,-0.284635 -0.926509,-0.415036 -0.417717,-0.08491 0.186635,0.120334 -0.514285,-0.222052 -0.199157,-0.09728 -0.378925,-0.126362 -0.596029,-0.224589 -0.271809,-0.122978 -0.521277,-0.230332 -0.851148,-0.296653 -0.510905,-0.134631 -0.74749,-0.1263 -1.008613,-0.14827 -0.391451,-0.05045 -0.748256,-0.0043 -0.979852,0.0147 -0.510897,0.01397 -1.021988,0.03913 -1.528406,0.112268 -0.555958,0.07779 -1.110075,0.158977 -1.67377,0.124643 -0.540194,0.0011 -1.080386,0.0013 -1.620578,7.9e-5 -0.532072,-5.29e-4 -1.064231,-0.0019 -1.596086,-0.01876 -0.81757,-0.02898 -1.634706,-0.07608 -2.448409,-0.162764 -0.670118,-0.06333 -1.340186,-0.06403 -2.012876,-0.06951 -0.711485,-0.02244 -1.422445,-0.05956 -2.131083,-0.129101 -0.894742,-0.08485 -1.789716,-0.133935 -2.68727,-0.177104 -0.624176,-0.06097 -1.23385,-0.196432 -1.858232,-0.250989 -0.51044,-0.06313 -1.015984,-0.185653 -1.533599,-0.160187 -0.483566,2.01e-4 -0.967134,5.29e-4 -1.4507,0.0021 -0.483852,0.0019 -0.967706,0.0056 -1.45156,0.0039 -0.472064,-0.0055 -0.949873,-0.0078 -1.410703,-0.123211 -1.273569,-0.406508 -3.02574,-1.702178 2.755559,1.687447 0.365824,0.214484 -0.974034,-0.514491 -0.597728,-0.389663 -0.362331,-0.397663 -0.651322,-0.860875 -0.88887,-1.342983 -0.215668,-0.355848 -0.347718,-0.763868 -0.457028,-1.161994 -0.152213,-0.534093 -0.341112,-1.053245 -0.445617,-1.601306 -0.133202,-0.610462 -0.340749,-1.208442 -0.620948,-1.766305 -0.357994,-0.59014 -0.730599,-1.166072 -1.01215,-1.799371 -0.284573,-0.592214 -0.4918,-1.230407 -0.593212,-1.879991 -0.08448,-0.522269 -0.122465,-1.0438 -0.185007,-1.569604 -0.106794,-0.58669 -0.272746,-1.159118 -0.415425,-1.736934 -0.07906,-0.230783 -0.116602,-0.477642 -0.23249,-0.693761 -0.157773,-0.294235 -0.06195,-0.07248 -0.251362,-0.336473 -0.0448,-0.06244 -0.07843,-0.13217 -0.117655,-0.198255 -1.10319,-1.337591 -2.788697,-2.181844 -4.446209,-2.672083 -0.696298,-0.119121 -1.397254,-0.140615 -2.102747,-0.102084 -0.783264,0.02283 -1.570545,0.04066 -2.345602,0.166222 -0.538549,0.06844 -1.080514,0.04071 -1.620981,0.08746 -0.578199,0.06173 -1.145635,0.179091 -1.705321,0.337632 -0.794729,0.181227 -1.60024,0.316495 -2.387685,0.528598 -0.883851,0.225504 -1.764506,0.460235 -2.636075,0.73057 -0.723493,0.203221 -1.451682,0.384569 -2.183384,0.556004 -0.711311,0.197654 -1.422165,0.397692 -2.129745,0.608136 -0.607925,0.213363 -1.207789,0.449718 -1.822421,0.64366 -0.571077,0.174435 -1.153872,0.315593 -1.745748,0.398105 -0.529279,0.08106 -1.063861,0.122783 -1.590117,0.224767 -0.473553,0.06654 -0.951152,0.04063 -1.428282,0.04356 -0.546901,-0.0044 -1.094308,-0.01466 -1.639079,-0.06757 -0.80253,-0.08318 -1.601147,-0.205177 -2.386151,-0.394325 z"
       sodipodi:nodetypes="cccccccccccccccssccccccccccccccccscccccccccsscccscsccssccscccccccccccccccccccccccccccccccccccccccccccccccccccccccccccccccccccscccccccccsscssccccccccccccccccssccccccsccccccssccccccccccccccccccsscccccccccccccccccsccccccccsscccsccsscccccccccccccccccccccccscccccccccccccccccccscccsscccssscccccccsscccccccccccccsccscssccccsccccccccccccsccccccccccccccccccccccccccccccccccccccccccccccccccccccccccccscccccsccsscssccccccccccccccccscccccccccssccccccccccccccccc" /><path
       style="fill:#1a1a1a;stroke:#ffffff;stroke-width:2;stroke-opacity:0"
       id="path5"
       d="m -1.4251328,129.69219 c 0.4963871,0.72026 0.97074435,1.45455 1.4424918,2.191 0.30941237,0.44177 0.5461655,0.927 0.78452513,1.40903 0.24211367,0.58467 0.47298457,1.17415 0.71641567,1.75843 0.2825263,0.68494 0.4611831,1.40691 0.6349527,2.12554 0.1693438,0.74168 0.3640453,1.47598 0.6110289,2.19564 0.3155059,0.90858 0.7688223,1.75959 1.2056899,2.61366 0.3867017,0.79722 0.850334,1.55251 1.2922747,2.31935 0.3506068,0.61536 0.6473211,1.25888 0.9763101,1.88605 0.3810442,0.72132 0.7850605,1.42904 1.1586003,2.15428 0.2801517,0.51908 0.5786954,1.02672 0.840032,1.55583 0.3336327,0.72597 0.6975663,1.43845 1.0735125,2.1434 0.5694539,1.05241 1.2034971,2.06777 1.7953061,3.10764 0.535059,0.88435 1.040303,1.7861 1.574755,2.67078 0.428563,0.73991 0.973382,1.39105 1.555946,2.01212 0.638232,0.73496 1.42296,1.2952 2.224498,1.83474 0.728912,0.48598 1.433501,1.00727 2.141682,1.52274 0.640807,0.46248 1.280094,0.92733 1.903722,1.41282 0.64729,0.57075 1.348183,1.07068 2.049922,1.571 0.781949,0.55272 1.567492,1.10054 2.372093,1.61985 0.16548,0.10371 0.327558,0.21305 0.496441,0.31112 0.233368,0.13551 3.035671,1.89599 4.415671,2.47563 0.546738,0.22965 1.116351,0.41443 1.672336,0.62046 1.058151,0.3907 2.16694,0.62184 3.277513,0.80339 1.107371,0.12488 2.210932,0.28222 3.318573,0.40573 0.569775,0.1008 1.050605,0.40652 1.552964,0.67778 1.03487,0.48991 2.065359,0.98891 3.093694,1.49237 1.033248,0.53393 2.093846,1.0135 3.117887,1.5647 0.910211,0.40843 1.834941,0.77953 2.779072,1.10198 0.730168,0.25024 1.473319,0.44545 2.230877,0.59409 0.927576,0.17538 1.855922,0.31777 2.797593,0.39136 1.129337,0.0698 2.25576,0.0682 3.383211,-0.0166 1.433581,-0.23019 2.868327,-0.44793 4.310374,-0.62237 1.700022,-0.26741 3.413239,-0.40379 5.131327,-0.47391 1.841135,-0.0589 3.683463,-0.0584 5.525312,-0.0519 1.226172,0.009 2.448878,0.0421 3.671208,-0.0632 1.166108,-0.0868 2.307179,-0.36388 3.456125,-0.56867 1.303485,-0.26548 2.610307,-0.51265 3.914518,-0.77482 0.942015,-0.14386 1.858497,-0.39936 2.765354,-0.68626 1.388292,-0.46175 2.785311,-0.89299 4.17295,-1.35785 1.763577,-0.59316 3.535301,-1.15994 5.324731,-1.67001 1.103432,-0.36943 2.216547,-0.69176 3.346834,-0.96681 1.48873,-0.34711 3.01519,-0.36498 4.53442,-0.33722 1.39793,0.0382 2.79477,0.10686 4.19277,0.14198 1.0467,0.0759 2.06681,-0.0104 3.09149,-0.22124 1.02503,-0.27143 2.0563,-0.51674 3.07435,-0.81363 1.02539,-0.23702 2.04206,-0.50731 3.06278,-0.76288 1.33178,-0.38767 2.67292,-0.7418 4.00674,-1.12261 1.63468,-0.47958 3.20496,-1.11866 4.75327,-1.82213 1.36878,-0.6286 2.63201,-1.45092 3.95118,-2.17021 0.93211,-0.49152 1.86518,-0.98179 2.79919,-1.47012 1.06886,-0.59371 2.19617,-1.06153 3.32724,-1.52004 1.215,-0.42492 2.32305,-1.05422 3.42643,-1.70484 1.58042,-1.08251 3.35021,-1.81459 5.09887,-2.57386 1.78602,-0.79597 3.65593,-1.3643 5.50676,-1.98201 0.74887,-0.25578 1.53432,-0.42056 2.24073,-0.78527 0.46374,-0.18685 0.96913,-0.25461 1.46249,-0.32255 0.66201,-0.0712 1.30758,-0.24519 1.95879,-0.37792 0.83829,-0.1866 1.69712,-0.0895 2.54542,-0.046 0.83883,0.0469 1.67817,0.0652 2.5181,0.0697 1.0985,-0.001 2.197,-0.002 3.2955,0.003 0.8825,0.005 1.76498,0.002 2.64748,0.002 0.92939,-0.0713 1.8543,-0.1765 2.77921,-0.28918 1.10024,-0.22769 2.22119,-0.2995 3.33423,-0.43011 1.61851,-0.14446 3.23477,-0.31038 4.8514,-0.47503 1.84456,-0.167 3.69001,-0.33549 5.52462,-0.59193 1.535,-0.19307 3.05477,-0.47901 4.57665,-0.75241 1.49205,-0.2726 2.9566,-0.67077 4.42374,-1.051 1.18424,-0.33304 2.38417,-0.60247 3.57721,-0.89959 0.97423,-0.20109 1.95126,-0.38218 2.94076,-0.48808 1.15317,-0.13295 2.2778,-0.41578 3.40082,-0.70001 1.30275,-0.29309 2.56459,-0.73416 3.83471,-1.14003 1.34793,-0.3926 2.57428,-1.08 3.82665,-1.69645 1.49799,-0.67974 2.99326,-1.3634 4.48077,-2.06572 0.64697,-0.33659 1.27363,-0.70725 1.8661,-1.13246 0.69525,-0.44171 1.35021,-0.94369 2.01215,-1.43307 1.05148,-0.73786 2.138,-1.42235 3.18955,-2.16016 0.98885,-0.71029 1.92407,-1.49214 2.88893,-2.23435 0.81886,-0.65306 1.66424,-1.27265 2.5142,-1.88443 1.19716,-0.83759 2.44631,-1.59375 3.67356,-2.38534 1.07319,-0.71387 2.16452,-1.39904 3.2408,-2.10818 0.90592,-0.64235 1.85859,-1.21339 2.77659,-1.83795 1.12128,-0.83051 2.25887,-1.64046 3.33943,-2.52387 1.15554,-0.91928 2.25389,-1.90629 3.38054,-2.85987 0.92294,-0.77303 1.83258,-1.56087 2.74999,-2.34054 0.76669,-0.6003 1.53087,-1.20144 2.25058,-1.85767 0.84438,-0.74127 1.73292,-1.43397 2.63292,-2.1065 0.9974,-0.71438 1.97783,-1.45178 2.97561,-2.16561 0.83654,-0.56988 1.70786,-1.08706 2.54479,-1.6558 0.76015,-0.45931 1.55015,-0.83445 2.38109,-1.14502 1.20712,-0.50909 2.4013,-1.04888 3.61928,-1.53176 1.14491,-0.44581 2.28226,-0.90957 3.4191,-1.37535 1.2945,-0.45865 2.59545,-0.89681 3.8704,-1.40836 1.114,-0.48737 2.25322,-0.90641 3.41032,-1.2781 1.00134,-0.33099 1.95175,-0.79791 2.89065,-1.27386 1.00021,-0.51877 2.0388,-0.9545 3.06396,-1.42058 1.07243,-0.43728 2.16135,-0.83157 3.23514,-1.26632 0.89556,-0.37535 1.76194,-0.8141 2.67912,-1.13534 0.71712,-0.30162 1.47245,-0.486638 2.21133,-0.721408 0.80193,-0.177403 1.59599,-0.378265 2.37019,-0.655188 0.99597,-0.378659 2.00186,-0.730972 3.00014,-1.103926 0.77822,-0.308907 1.48307,-0.76911 2.19929,-1.197102 0.56455,-0.313717 1.12398,-0.637143 1.68029,-0.965748 0.63236,-0.336323 1.28741,-0.631751 1.90177,-1.000255 0.43855,-0.286088 0.94486,-0.435522 1.40669,-0.66993 0.1914,-0.0833 0.83598,-0.35138 0.99184,-0.194921 0,0 -3.20326,-2.374035 -3.20326,-2.374035 v 0 c -0.36382,0.130876 -0.76091,0.172638 -1.09741,0.381696 -0.48323,0.210685 -0.9653,0.42582 -1.41232,0.708467 -0.62092,0.357148 -1.27412,0.651811 -1.90087,0.998098 -0.56221,0.320104 -1.11678,0.652044 -1.6786,0.972876 -0.69617,0.415731 -1.37922,0.865957 -2.1441,1.148188 -0.99496,0.37166 -1.99149,0.738632 -2.99307,1.092166 -0.78653,0.244424 -1.58533,0.431091 -2.38228,0.635772 -0.74557,0.222692 -1.48823,0.454882 -2.20996,0.748025 -0.90818,0.350988 -1.7838,0.777938 -2.68446,1.147564 -1.07231,0.438526 -2.15385,0.852088 -3.22655,1.289251 -1.03423,0.46098 -2.07613,0.90399 -3.07953,1.43075 -0.92962,0.46525 -1.87698,0.89833 -2.86658,1.2218 -1.14781,0.39761 -2.28068,0.82969 -3.39587,1.31227 -1.28335,0.49213 -2.58279,0.93821 -3.8727,1.41212 -1.14286,0.4585 -2.2917,0.90191 -3.43165,1.36756 -1.20652,0.50377 -2.4017,1.0345 -3.61493,1.52207 -0.85764,0.32445 -1.68793,0.70537 -2.45938,1.20557 -0.83271,0.56856 -1.68107,1.11417 -2.51199,1.68553 -1.0076,0.70855 -1.99227,1.44768 -2.99073,2.16889 -0.90686,0.6862 -1.81434,1.37528 -2.66733,2.12819 -0.71803,0.65196 -1.49123,1.23584 -2.24075,1.85069 -0.90593,0.78735 -1.80902,1.57758 -2.72217,2.35661 -1.11655,0.96341 -2.22566,1.93445 -3.38452,2.8475 -1.07217,0.87774 -2.19515,1.68961 -3.32647,2.48903 -0.925,0.61608 -1.88132,1.18397 -2.78672,1.82927 -1.06351,0.71674 -2.13854,1.41534 -3.20747,2.12401 -1.23127,0.8047 -2.49928,1.55144 -3.7137,2.38236 -0.85258,0.61597 -1.70023,1.23929 -2.52101,1.89738 -0.949,0.74902 -1.87516,1.52893 -2.86545,2.22416 -1.05871,0.73038 -2.13579,1.43322 -3.19495,2.16291 -0.67998,0.47122 -1.35478,0.95008 -2.04411,1.40754 -0.58195,0.3957 -1.18408,0.76296 -1.80109,1.10124 -1.46138,0.73482 -2.9469,1.41583 -4.43473,2.09524 -1.25557,0.60016 -2.50772,1.2175 -3.84412,1.62145 -1.25322,0.41971 -2.50949,0.83555 -3.80019,1.12758 -1.12336,0.26541 -2.25138,0.5136 -3.4003,0.64126 -0.99818,0.12565 -1.98868,0.30644 -2.9699,0.52874 -1.18784,0.29417 -2.37008,0.60826 -3.55311,0.9213 -1.45833,0.37982 -2.91452,0.77524 -4.40115,1.03141 -1.51474,0.27821 -3.0324,0.53758 -4.55869,0.74551 -1.82845,0.25429 -3.6664,0.42386 -5.50482,0.58819 -1.62988,0.16461 -3.26147,0.30541 -4.89322,0.44866 -1.11921,0.11157 -2.23554,0.23614 -3.34463,0.4275 -0.91795,0.10585 -1.83891,0.20277 -2.76211,0.2445 -0.88009,10e-6 -1.76018,-0.002 -2.64027,0.003 -1.09999,0.004 -2.20007,0.005 -3.29997,-0.0113 -0.83673,-0.0142 -1.67337,-0.0388 -2.50917,-0.0816 -0.87408,-0.041 -1.75434,-0.0917 -2.61322,0.1203 -0.64668,0.13641 -1.29371,0.27804 -1.95061,0.3563 -0.52576,0.084 -1.06049,0.15787 -1.5337,0.41868 -0.70201,0.31385 -1.45225,0.50345 -2.17035,0.77603 -1.83097,0.64835 -3.67219,1.27141 -5.45207,2.05445 -1.77674,0.76432 -3.58377,1.48603 -5.19995,2.56491 -1.08898,0.64079 -2.20092,1.22621 -3.39188,1.65914 -1.14269,0.4652 -2.27891,0.94474 -3.3612,1.54097 -0.9372,0.48226 -1.87219,0.96948 -2.78855,1.49059 -1.29626,0.73456 -2.55859,1.53165 -3.91486,2.15606 -1.53538,0.69457 -3.10076,1.31102 -4.72443,1.77145 -1.34087,0.37587 -2.69072,0.71755 -4.03173,1.09266 -1.02475,0.26391 -2.05434,0.50625 -3.08034,0.76524 -1.00754,0.28338 -2.01754,0.56033 -3.03787,0.794 -1.01313,0.17022 -2.02622,0.20093 -3.05244,0.14902 -1.38335,-0.0291 -2.7663,-0.0729 -4.14954,-0.10646 -1.551848,-0.0177 -3.110728,0.0215 -4.627103,0.39194 -1.132578,0.27376 -2.240685,0.61927 -3.344259,0.9927 -1.771237,0.54827 -3.532441,1.12675 -5.295109,1.70181 -1.407954,0.44202 -2.823789,0.85647 -4.227166,1.3125 -0.903078,0.26463 -1.816108,0.49121 -2.74271,0.6585 -1.294241,0.27716 -2.593808,0.53141 -3.89445,0.7759 -1.146696,0.2071 -2.290754,0.45449 -3.456871,0.52241 -1.201838,0.0943 -2.407007,0.0527 -3.611536,0.0671 -1.841675,0.0103 -3.683889,0.011 -5.524757,0.0722 -1.726165,0.0774 -3.443403,0.23384 -5.15236,0.49547 -1.448774,0.17346 -2.889793,0.39911 -4.337098,0.5785 -1.118388,0.0679 -2.238653,0.0552 -3.355737,-0.0392 -0.93387,-0.0924 -1.857078,-0.2488 -2.776603,-0.43591 -0.743265,-0.17259 -1.476153,-0.37799 -2.196621,-0.63067 -0.929169,-0.33531 -1.848052,-0.70025 -2.734041,-1.1389 -1.032277,-0.52593 -2.075926,-1.02972 -3.112804,-1.54656 -1.040003,-0.50708 -2.085885,-1.0027 -3.116826,-1.52798 -0.522208,-0.27314 -1.033322,-0.52049 -1.634196,-0.55232 -1.097188,-0.12071 -2.193708,-0.25508 -3.285911,-0.41358 -1.097788,-0.21166 -2.19298,-0.44802 -3.236455,-0.86001 -0.551994,-0.20464 -1.111451,-0.39813 -1.645721,-0.64702 -0.184267,-0.0858 -0.71851,-0.37979 -0.544341,-0.27497 5.495782,3.30776 3.320238,1.95659 2.342465,1.34625 -0.808477,-0.50371 -1.589029,-1.0491 -2.367085,-1.59823 -0.707113,-0.48814 -1.418478,-0.97329 -2.057468,-1.5488 -0.611984,-0.49609 -1.243507,-0.96752 -1.888026,-1.42046 -0.705802,-0.53417 -1.434802,-1.03819 -2.156789,-1.54999 -0.792833,-0.52391 -1.609328,-1.02347 -2.239387,-1.74834 -0.589065,-0.60044 -1.163705,-1.21199 -1.596572,-1.93901 -0.553384,-0.8767 -1.048488,-1.78783 -1.599979,-2.66571 -0.583876,-1.03603 -1.217631,-2.04341 -1.780149,-3.09078 -0.373655,-0.69412 -0.726788,-1.39825 -1.066872,-2.10895 -0.223166,-0.5557 -0.537915,-1.06406 -0.826497,-1.58734 -0.416535,-0.69988 -0.760765,-1.44483 -1.1766389,-2.14671 -0.3123507,-0.6363 -0.634815,-1.27033 -0.9606097,-1.89805 -0.4297646,-0.77726 -0.9387755,-1.50985 -1.320129,-2.31411 C 7.1173866,142.75987 6.6626559,141.92682 6.330937,141.04211 6.0848922,140.33546 5.8674931,139.6212 5.7139384,138.88807 5.545157,138.1506 5.3543355,137.41404 5.0960519,136.70291 4.8627831,136.11443 4.6131284,135.53385 4.4071177,134.9355 4.1845142,134.42795 3.9294122,133.93033 3.633484,133.46182 3.1275165,132.75781 2.7020649,131.99612 2.1975499,131.28999 Z" /><path
       style="fill:#1a1a1a;stroke:#ffffff;stroke-width:2;stroke-opacity:0"
       id="path6"
       d="m 4.9197349,134.51274 c 0.1120423,0.0624 0.2226406,0.12744 0.3361275,0.18716 0.1298742,0.0683 0.2637613,0.12885 0.3937775,0.19692 0.1331862,0.0697 0.5258128,0.29171 0.395696,0.21641 -0.9934805,-0.57496 -3.978479,-2.29192 -2.9858869,-1.71543 1.2389609,0.71958 2.4895839,1.41905 3.7249997,2.1447 1.0166693,0.59717 -2.0458203,-1.17282 -3.0687304,-1.75923 1.5547311,1.03101 3.2118723,1.8933 4.8194449,2.83797 -1.0506064,-0.60498 -2.0995404,-1.21287 -3.1518195,-1.81494 -0.1592268,-0.0911 0.311168,0.19453 0.4700074,0.2863 1.2075051,0.69769 2.4178667,1.39043 3.6244323,2.08974 1.0482516,0.60755 -2.0988681,-1.21102 -3.1494867,-1.81447 -0.082104,-0.0472 0.1626073,0.0971 0.2439109,0.14558 0.4716962,0.30287 0.9005006,0.66568 1.3432229,1.00794 0.5042495,0.43982 1.0506972,0.81385 1.6142155,1.17228 1.768316,1.20883 3.656161,2.22817 5.526857,3.26849 0.771874,0.37536 1.536732,0.76321 2.294971,1.16546 0.736106,0.42263 1.469094,0.85616 2.232698,1.22779 3.15672,1.72803 -11.3317576,-6.44862 0.922455,0.51875 1.038796,0.59063 -4.150022,-2.37141 -3.106801,-1.78864 1.628277,0.90961 2.585512,1.47 3.902381,2.23961 -5.989608,-3.65652 -2.903114,-1.61026 -1.521924,-0.7826 2.044065,1.5048 3.990228,2.33205 6.295401,3.02447 0.774005,0.30635 1.598989,0.4382 2.409699,0.60927 0.680058,0.13528 1.373216,0.21881 2.044229,0.39478 0.785807,0.16312 1.583571,0.25339 2.369185,0.41934 1.052721,0.20927 2.111176,0.3855 3.166784,0.57926 0.821669,0.14654 1.651717,0.22073 2.485171,0.24365 0.835702,0.0149 1.671669,0.007 2.507474,0.006 0.699469,0.0182 1.387457,0.0165 2.078797,-0.0868 0.734579,-0.0919 1.416304,-0.41091 2.108409,-0.65687 0.874435,-0.33496 1.715418,-0.75001 2.506401,-1.25061 0.638349,-0.37458 1.244777,-0.80238 1.833983,-1.24963 0.581906,-0.56241 1.167379,-1.12045 1.781106,-1.64852 0.691203,-0.58862 1.414605,-1.13084 2.071661,-1.75818 0.664371,-0.53933 1.304758,-1.10413 1.938319,-1.67952 0.77207,-0.68271 1.618864,-1.26849 2.479572,-1.83195 0.838681,-0.50809 1.638408,-1.08137 2.495899,-1.55752 0.610854,-0.3119 1.176922,-0.81925 1.880727,-0.88916 0.750766,0.12821 1.498963,0.28083 2.254144,0.38716 0.971839,0.10515 1.950114,0.11806 2.926512,0.13311 0.840692,0.0177 1.673484,0.0255 2.507868,-0.0792 0.737931,-0.1038 1.483514,-0.12857 2.227467,-0.14806 0.809074,0.0279 1.606222,-0.0453 2.408078,-0.13843 0.7199,-0.0409 1.420188,-0.20391 2.122575,-0.35447 0.703792,-0.17659 1.421741,-0.29555 2.127713,-0.46217 0.758005,-0.15231 1.519624,-0.28645 2.276015,-0.44707 0.76463,-0.12534 1.523013,-0.28243 2.287391,-0.40856 0.780431,-0.17617 1.560561,-0.35225 2.338811,-0.53874 0.804056,-0.20011 1.63091,-0.26364 2.455805,-0.30128 0.684797,-0.0228 1.360095,-0.15338 2.043287,-0.2087 0.742553,-0.0111 1.476414,-0.10762 2.214663,-0.17852 0.756935,-0.0254 1.497631,-0.17937 2.247439,-0.27127 0.699058,-0.0496 1.386679,-0.17829 2.084486,-0.24521 0.719142,-0.011 1.422974,-0.15248 2.133991,-0.24276 0.574527,-0.0265 1.129305,-0.17378 1.699425,-0.24127 0.68783,-0.0815 1.38326,-0.0332 2.06926,-0.12093 0.66766,-0.0608 1.32079,-0.19221 1.97936,-0.31086 0.62798,-0.0664 1.2474,-0.18412 1.87477,-0.25492 0.90034,-0.12651 1.78121,-0.34226 2.66074,-0.56694 0.76284,-0.20519 1.50234,-0.48212 2.25315,-0.72367 0.71396,-0.24615 1.43247,-0.47831 2.14515,-0.73014 0.45178,-0.10683 0.91781,-0.0659 1.37695,-0.0501 0.4229,-0.10807 0.85117,-0.16109 1.2857,-0.18926 0.66705,-0.0381 1.32616,-0.17429 1.9799,-0.30884 0.74492,-0.21755 1.48817,-0.43606 2.22261,-0.68788 0.75132,-0.23394 1.50622,-0.51379 2.16362,-0.95248 0.47345,-0.32693 0.95059,-0.64782 1.40341,-1.00374 0.48356,-0.39724 0.92929,-0.83751 1.3751,-1.27589 0.40757,-0.38314 0.71037,-0.83663 1.01773,-1.29836 0.35446,-0.53288 0.6153,-1.1093 0.83036,-1.70998 0.25178,-0.74034 0.35659,-1.51733 0.41942,-2.29339 0.008,-0.47394 0.13248,-0.93314 0.19955,-1.40006 0.0265,-0.48873 0.10138,-0.96069 0.25608,-1.42481 0.086,-0.41018 0.32995,-0.71605 0.57432,-1.03904 0.27424,-0.35487 0.56883,-0.71369 0.95243,-0.95339 0.41987,-0.27217 0.91945,-0.40989 1.40224,-0.53093 0.48361,-0.0504 0.93335,-0.23379 1.41283,-0.30398 0.58148,-0.10347 1.17386,-0.17707 1.7506,-0.30808 0.67316,-0.21784 1.34534,-0.43829 2.01999,-0.65148 0.69561,-0.21951 1.3912,-0.40929 2.11546,-0.50161 0.76576,-0.0724 1.536,-0.0676 2.30436,-0.0725 1.00222,0.0326 2.00921,0.10754 3.00679,0.21811 1.13169,0.14966 2.27232,0.20692 3.41236,0.24366 1.16627,0.048 2.33029,0.1494 3.49694,0.20574 1.04527,0.0505 2.09176,0.0548 3.13797,0.0625 0.77625,0.0345 1.56176,-0.0544 2.33314,0.0487 0.55563,0.097 1.11493,0.16101 1.67838,0.18296 0.79135,-0.0269 1.59316,-0.095 2.37814,-0.21298 0.83688,-0.0977 1.65808,-0.28698 2.49287,-0.39809 0.7668,-0.15441 1.5392,-0.26295 2.2925,-0.4783 0.63101,-0.14961 1.21274,-0.43892 1.82121,-0.65335 0.56078,-0.21345 1.14067,-0.38312 1.72589,-0.51613 0.61491,-0.12315 1.24472,-0.13218 1.86951,-0.14255 0.69314,-0.0416 1.39823,-0.10418 2.08207,-0.23393 0.75128,-0.15665 1.51648,-0.20344 2.28125,-0.23337 0.95857,-0.11412 1.92074,-0.1878 2.88494,-0.23021 1.00953,-0.0364 2.01409,-0.16742 3.01458,-0.30303 1.04238,-0.13897 2.09358,-0.18046 3.14378,-0.20454 0.76348,-0.0754 1.50952,0.0877 2.2648,0.15567 0.92938,0.0321 1.85399,0.11216 2.78016,0.1938 0.87276,0.0512 1.74692,0.13723 2.60142,0.32663 0.70378,0.12903 1.40494,0.27029 2.10946,0.39684 0.61893,0.14862 1.2571,0.2193 1.87693,0.3629 0.56614,0.14231 1.14484,0.20936 1.72634,0.24211 0.59809,0.0199 1.19684,0.0139 1.79522,0.0144 0.5404,-0.0448 1.06149,0.0969 1.59278,0.16846 0.50637,0.0779 1.02215,0.0272 1.52524,0.11604 0.62092,0.11637 1.25221,0.15507 1.88243,0.17547 0.83449,0.0334 1.67059,-0.0207 2.50262,0.056 0.97829,0.10795 1.96233,0.14309 2.94532,0.17751 0.80677,0.0375 1.60552,0.0411 2.40655,-0.0585 0.67826,-0.15283 1.35705,-0.30006 2.03732,-0.44105 0.81019,-0.14806 1.62807,-0.2483 2.43872,-0.3922 0.86145,-0.13064 1.70875,-0.33104 2.57452,-0.43264 0.92944,-0.0943 1.86461,-0.0995 2.79783,-0.10884 1.31424,7.9e-4 2.61833,-0.19655 3.92574,-0.31026 1.76229,-0.15569 3.52795,-0.16705 5.29428,-0.10707 1.22828,0.0934 2.45437,0.088 3.68237,0.0106 0.58448,0.002 1.14534,-0.0928 1.70972,-0.23527 0.86231,-0.31766 1.7717,-0.46947 2.64936,-0.72893 0.50604,-0.11366 0.98702,-0.29738 1.48332,-0.4404 0.57932,-0.13656 1.15896,-0.275 1.74568,-0.38505 0.69194,-0.18955 1.39214,-0.33816 2.10582,-0.41207 0.24445,0.0104 0.46801,-0.0599 0.69208,-0.14538 0,0 -3.28738,-2.23574 -3.28738,-2.23574 v 0 c -0.20855,0.0511 -0.42048,0.076 -0.63433,0.0959 -0.71103,0.10505 -1.40556,0.28274 -2.10569,0.44246 -0.60364,0.11637 -1.20501,0.24102 -1.7975,0.40618 -0.48077,0.16507 -0.96864,0.30077 -1.45568,0.44654 -0.87742,0.24437 -1.76322,0.46037 -2.64054,0.70563 -0.55398,0.10602 -1.1092,0.16331 -1.67303,0.18801 -1.19628,0.0856 -2.39194,0.0826 -3.58963,0.009 -1.78061,-0.0515 -3.56129,-0.0266 -5.33689,0.13237 -1.31137,0.11226 -2.62213,0.27475 -3.94052,0.26261 -0.94668,0.008 -1.8957,0.0163 -2.83613,0.13865 -0.86477,0.12001 -1.7168,0.31371 -2.57971,0.44692 -0.82179,0.12737 -1.6475,0.23264 -2.46329,0.39653 -0.66948,0.14594 -1.33973,0.29144 -2.01475,0.40895 -0.7848,0.0758 -1.57178,0.0438 -2.35898,0.0226 -0.98278,-0.0333 -1.96341,-0.0958 -2.94222,-0.19119 -0.83879,-0.0362 -1.67908,-0.0123 -2.51783,-0.0571 -0.62796,-0.0382 -1.25195,-0.10728 -1.87357,-0.20468 -0.50836,-0.0343 -1.01938,-0.0439 -1.52337,-0.12639 -0.53775,-0.0825 -1.07336,-0.15429 -1.61961,-0.11817 -0.59483,-10e-5 -1.1905,0.002 -1.78408,-0.042 -0.56878,-0.0519 -1.13035,-0.14841 -1.68731,-0.27539 -0.62899,-0.1098 -1.25166,-0.24625 -1.88029,-0.35729 -0.70056,-0.1341 -1.40316,-0.25575 -2.10256,-0.39571 -0.86393,-0.14454 -1.73444,-0.2293 -2.60875,-0.28068 -0.93213,-0.0803 -1.86472,-0.14473 -2.79737,-0.21554 -0.75695,-0.0919 -1.51276,-0.16101 -2.27652,-0.0993 -1.05799,0.0345 -2.11574,0.0942 -3.16507,0.24041 -0.99642,0.13302 -1.99846,0.23459 -3.00346,0.27047 -0.96463,0.0536 -1.9251,0.15278 -2.88828,0.22552 -0.77791,0.0396 -1.55203,0.11241 -2.31697,0.26525 -0.6809,0.0946 -1.36665,0.17858 -2.05474,0.18662 -0.64389,0.0225 -1.29256,0.0496 -1.91973,0.21096 -0.59396,0.15597 -1.18554,0.32606 -1.75729,0.55181 -0.58674,0.2341 -1.16963,0.48159 -1.78617,0.63003 -0.74771,0.18503 -1.50704,0.30724 -2.2651,0.44143 -0.82804,0.13061 -1.64901,0.30453 -2.48287,0.39855 -0.78016,0.0877 -1.56843,0.18286 -2.35419,0.13766 -0.55736,-0.0449 -1.10973,-0.12681 -1.66552,-0.18629 -0.77784,-0.0315 -1.55675,2.6e-4 -2.33503,-0.0108 -1.03782,-0.003 -2.07578,-0.0176 -3.11261,-0.0656 -1.16935,-0.0601 -2.33535,-0.17364 -3.50584,-0.20513 -1.13452,-0.0432 -2.26699,-0.12077 -3.39389,-0.26284 -1.01241,-0.0963 -2.02894,-0.19889 -3.0466,-0.19509 -0.78434,0.003 -1.57224,-5.3e-4 -2.3507,0.10873 -0.73082,0.12438 -1.43775,0.33626 -2.14422,0.55888 -0.66479,0.21423 -1.33192,0.42416 -2.00547,0.60835 -0.58489,0.10141 -1.16925,0.20572 -1.7559,0.29634 -0.47788,0.10396 -0.9476,0.24289 -1.42818,0.33582 -0.51728,0.15561 -1.04533,0.31421 -1.48505,0.63951 -0.38807,0.29964 -0.71917,0.66696 -1.01719,1.05537 -0.27398,0.35394 -0.53319,0.70784 -0.63425,1.15547 -0.16295,0.48431 -0.28467,0.97518 -0.29578,1.4893 -0.0585,0.47839 -0.19416,0.94633 -0.19794,1.42981 -0.0406,0.74451 -0.118,1.49185 -0.3553,2.20315 -0.20671,0.5685 -0.47198,1.1076 -0.80303,1.61483 -0.29362,0.4366 -0.57853,0.87076 -0.96604,1.2341 -0.43783,0.42635 -0.87659,0.85415 -1.35851,1.23124 -0.44999,0.33969 -0.90841,0.66803 -1.37921,0.97826 -0.64852,0.39548 -1.36865,0.65822 -2.09211,0.88164 -0.72984,0.23277 -1.46382,0.45576 -2.20726,0.64098 -0.64836,0.12854 -1.30379,0.23145 -1.96492,0.26165 -0.42397,0.0403 -0.84032,0.13803 -1.26523,0.15251 -0.4905,-0.008 -0.98229,-7.9e-4 -1.4469,0.1803 -0.70652,0.259 -1.42653,0.47544 -2.13643,0.72422 -0.73807,0.25278 -1.47636,0.50568 -2.23096,0.70609 -0.86646,0.22503 -1.74127,0.41624 -2.63123,0.52272 -0.6357,0.0777 -1.27175,0.16005 -1.90312,0.26745 -0.64802,0.12502 -1.29897,0.22236 -1.956259,0.28557 -0.693179,0.0469 -1.390684,0.0341 -2.08067,0.12907 -0.567285,0.0831 -1.12957,0.19556 -1.701919,0.24189 -0.70244,0.1043 -1.403533,0.20814 -2.114132,0.24036 -0.700598,0.0773 -1.397762,0.18076 -2.099363,0.24894 -0.739828,0.10626 -1.4771,0.22897 -2.224656,0.26988 -0.742471,0.0717 -1.485006,0.1197 -2.22929,0.16618 -0.675407,0.0698 -1.346218,0.18873 -2.026528,0.20365 -0.838107,0.0572 -1.674545,0.14959 -2.490404,0.35868 -0.77833,0.1725 -1.550305,0.37307 -2.334932,0.51602 -0.761449,0.1415 -1.523785,0.27596 -2.284325,0.42222 -0.764339,0.14388 -1.527548,0.29347 -2.29013,0.44627 -0.709165,0.1443 -1.412491,0.3109 -2.11954,0.4645 -0.69669,0.14692 -1.397646,0.25687 -2.107261,0.32004 -0.791681,0.0921 -1.58379,0.11844 -2.380866,0.11557 -0.753295,0.023 -1.506302,0.0676 -2.253456,0.17057 -0.819259,0.0832 -1.642645,0.0538 -2.465028,0.0476 -0.968047,-0.0151 -1.939226,-0.0387 -2.898836,-0.17842 -0.780513,-0.12615 -1.572765,-0.35248 -2.365645,-0.29307 -0.69397,0.21428 -1.269047,0.68969 -1.911715,1.01523 -0.855048,0.49705 -1.670576,1.05783 -2.510721,1.57939 -0.870291,0.58108 -1.72263,1.18838 -2.509012,1.88102 -0.645152,0.56891 -1.3042,1.12052 -1.953217,1.68427 -0.654045,0.61919 -1.377196,1.15354 -2.0588,1.74153 -0.612299,0.51948 -1.183503,1.0829 -1.778646,1.62097 -0.584337,0.43453 -1.185889,0.84659 -1.80739,1.22633 -0.775266,0.47746 -1.598863,0.87029 -2.454589,1.1824 -0.678559,0.24037 -1.359011,0.50621 -2.081462,0.57511 -0.674923,0.0774 -1.353891,0.0474 -2.032182,0.057 -0.835689,0.002 -1.671677,0.003 -2.506988,-0.0254 -0.816203,-0.0414 -1.629772,-0.12376 -2.433749,-0.27448 -1.057888,-0.19062 -2.117867,-0.36904 -3.170113,-0.58968 -0.792062,-0.14744 -1.591707,-0.25509 -2.376469,-0.43928 -0.680175,-0.13395 -1.362763,-0.25493 -2.043347,-0.38655 -0.802148,-0.17245 -1.605657,-0.33719 -2.376266,-0.62717 -0.490585,-0.15366 -0.983584,-0.30542 -1.464746,-0.48713 -1.304288,-0.49259 -3.532412,-1.82943 1.947987,1.27767 -1.758983,-1.01831 -3.362479,-2.25673 -5.226284,-3.1175 -0.08593,-0.047 -0.342466,-0.19038 -0.257792,-0.14112 1.039153,0.60464 4.167359,2.39988 3.121312,1.80726 -1.224621,-0.69379 -2.434086,-1.41407 -3.657052,-2.11077 -2.45511,-1.39863 12.191859,7.02437 -0.597329,-0.33373 -0.106656,-0.0609 -0.218271,-0.11255 -0.327406,-0.16883 -0.747075,-0.39599 -1.481366,-0.81518 -2.220518,-1.22557 -0.760875,-0.39832 -1.533109,-0.77434 -2.293072,-1.17428 -1.336356,-0.73606 -0.940343,-0.52173 2.613844,1.53046 0.114987,0.0664 -0.225957,-0.13954 -0.340047,-0.20746 -0.479738,-0.28562 -0.250745,-0.12919 -0.722546,-0.45031 -0.116108,-0.079 -0.23042,-0.16066 -0.34563,-0.24099 -0.549723,-0.35835 -1.130296,-0.66994 -1.604421,-1.13144 -0.446665,-0.34679 -0.888121,-0.69496 -1.33447,-1.04258 -1.3428525,-0.92062 -0.8041574,-0.56033 -3.8639242,-2.25282 -1.0616541,-0.58725 2.0970367,1.2208 3.1486258,1.82588 0.1586423,0.0913 -0.3135466,-0.18894 -0.4717478,-0.28098 -1.2065492,-0.702 -2.4113157,-1.40705 -3.6169735,-2.11058 -1.2495839,-0.6947 -0.954337,-0.53242 2.9246279,1.70224 0.078715,0.0453 -0.1523883,-0.099 -0.2304713,-0.14545 -0.7144803,-0.42482 0.2550186,0.1794 -0.4866278,-0.30349 -0.088972,-0.0579 -0.1805345,-0.11178 -0.2708016,-0.16767 -1.2241318,-0.71631 -2.4638632,-1.40659 -3.6723957,-2.14891 -0.9880978,-0.60693 4.0195701,2.3147 3.010907,1.7426 -1.6353189,-0.92752 -3.2303307,-1.91887 -4.905338,-2.77132 z" /><path
       style="fill:#1a1a1a;stroke:#ffffff;stroke-width:2;stroke-opacity:0"
       id="path7"
       d="M 8.493503,82.351225 C 7.7248207,82.662291 6.988761,83.00423 6.3336217,83.51689 5.8695801,83.906605 5.4663395,84.349385 5.183842,84.885894 c -0.2880331,0.57295 -0.3495537,1.207381 -0.3940093,1.83679 -0.062427,0.643062 0.0052,1.281433 0.12358,1.913232 0.1506696,0.720185 0.3992433,1.416576 0.6883133,2.091782 0.2863667,0.646446 0.6846131,1.208844 1.1958523,1.693545 1.5243961,1.307748 3.3198227,2.28536 5.1284557,3.142562 0.628162,0.234548 1.298067,0.324393 1.94547,0.497433 0.845958,0.180147 1.709093,0.248195 2.570965,0.294973 0.724218,-0.07784 1.453559,-0.121986 2.17475,-0.224031 1.091546,-0.117387 2.153156,-0.396152 3.185346,-0.761338 1.079965,-0.440582 2.175092,-0.835266 3.284495,-1.195401 0.996506,-0.286313 2.023704,-0.439219 3.038934,-0.640355 1.139616,-0.200496 2.271241,-0.439163 3.396469,-0.708813 1.33023,-0.318215 2.674369,-0.564253 4.022389,-0.792705 1.089586,-0.117166 2.181926,-0.08233 3.268181,0.03797 0.879711,0.0711 1.758175,0.189892 2.619698,0.383615 0.876101,0.213074 1.759495,0.4016 2.637179,0.611142 1.189437,0.347345 2.352727,0.78594 3.499892,1.25408 1.170035,0.435904 2.322901,0.91096 3.474744,1.392701 1.035391,0.420219 2.05251,0.880324 3.071214,1.338889 0.138123,0.05629 0.277466,0.10968 0.414372,0.168868 0.402334,0.173934 0.316429,0.161361 0.710676,0.311563 0.282263,0.107534 0.568042,0.167962 0.844336,0.289938 0.446643,0.121264 0.807572,0.314701 1.211151,0.522652 -8.5555,-4.909692 0.354987,0.203783 0.380998,0.218411 1.069091,0.601232 -4.268354,-2.418492 -3.189589,-1.834792 1.219327,0.659754 2.40792,1.37479 3.611401,2.063027 0.07325,0.04189 0.291962,0.169405 0.218797,0.127357 -1.053018,-0.605163 -2.10557,-1.211132 -3.158355,-1.816698 0.487217,0.290627 0.964909,0.596636 1.438053,0.909593 1.31001,0.905407 2.711987,1.675506 4.141903,2.371706 0.316984,0.15434 0.610952,0.31881 0.939835,0.44971 0.835154,0.42225 1.733298,0.68861 2.620153,0.97766 1.137361,0.34806 2.284568,0.66745 3.441668,0.9434 1.174028,0.18107 2.290299,0.58838 3.430077,0.90458 1.023294,0.32726 2.058638,0.61495 3.100596,0.87598 1.266285,0.32785 2.495754,0.78281 3.737774,1.19109 1.655903,0.52003 3.325447,0.99621 4.995093,1.4703 1.077992,0.32944 2.167916,0.62478 3.270046,0.86233 0.782756,0.13797 1.560007,0.30708 2.328151,0.51092 0.809773,0.19567 1.609936,0.41904 2.434693,0.54462 0.662622,0.0601 1.317276,0.17254 1.97962,0.23858 0.720167,0.0917 1.432245,0.0638 2.150362,-0.0114 0.891973,-0.0716 1.782992,-0.17843 2.662605,-0.34434 0.906065,-0.15267 1.805958,-0.3289 2.719094,-0.4356 0.76064,-0.11523 1.50501,-0.30847 2.26253,-0.43761 0.80902,-0.19789 1.632,-0.32539 2.44259,-0.51714 0.97447,-0.23539 1.95631,-0.43058 2.94411,-0.60218 0.97502,-0.19677 1.92929,-0.47742 2.91418,-0.6248 0.72812,-0.0776 1.44401,-0.25264 2.14658,-0.45531 0.71297,-0.18897 1.43869,-0.3132 2.15008,-0.51026 0.77829,-0.27589 1.58562,-0.45281 2.37568,-0.68986 0.80879,-0.23417 1.6421,-0.36486 2.46144,-0.55343 0.96557,-0.18333 1.91264,-0.44345 2.86669,-0.67605 0.84161,-0.18757 1.66961,-0.429 2.51248,-0.61212 0.87676,-0.23794 1.75359,-0.47076 2.64153,-0.66478 0.89216,-0.20294 1.78194,-0.41594 2.67585,-0.61129 0.74171,-0.19345 1.47514,-0.4174 2.21759,-0.60736 0.72763,-0.17548 1.3989,-0.48771 2.07021,-0.80909 0.6383,-0.346105 1.24374,-0.763131 1.79472,-1.235984 0.43672,-0.39261 0.79238,-0.860866 1.1539,-1.320689 0.38127,-0.460787 0.79199,-0.893294 1.16582,-1.360341 0.38206,-0.454084 0.70257,-0.955726 0.98724,-1.475304 0.23848,-0.519059 0.5603,-0.97477 0.90718,-1.425355 0.37318,-0.474845 0.75563,-0.947854 1.05585,-1.47319 0.32505,-0.489193 0.63999,-0.980458 0.9001,-1.507654 0.25947,-0.53372 0.53804,-1.056626 0.78613,-1.596062 0.19768,-0.494135 0.31862,-1.016772 0.44406,-1.533368 0.12236,-0.603624 0.13925,-1.221354 0.15713,-1.835008 0.008,-0.596071 0.009,-1.192209 0.01,-1.788326 -0.003,-0.588862 -0.004,-1.17774 -0.004,-1.766607 0.0212,-0.561459 -0.093,-1.114139 -0.16182,-1.668653 -0.0284,-0.525386 -0.10899,-1.039215 -0.26326,-1.542262 -0.15106,-0.456925 -0.29571,-0.918887 -0.48501,-1.361747 -0.21276,-0.421494 -0.39373,-0.857091 -0.58095,-1.29032 -0.20172,-0.456308 -0.39312,-0.919662 -0.5316,-1.399421 -0.0973,-0.477588 -0.15016,-0.961061 -0.24287,-1.440074 -0.10001,-0.438552 -0.26066,-0.861615 -0.43438,-1.27576 -0.0999,-0.217379 -0.83084,-2.198115 -4.36369,-1.881576 l -0.3989,0.08257 -0.80053,0.151043 c -0.22587,0.04262 0.69471,0.722759 0.78194,0.94008 0.23339,0.358532 0.30172,0.767318 0.30717,1.23186 -0.34952,1.318525 0.91126,0.0018 1.77302,0.405633 0.11298,0.507547 0.11177,1.060253 0.30479,1.541504 0.20855,0.420399 0.34172,0.873749 0.57997,1.278895 0.19056,0.43521 0.36758,0.874527 0.50599,1.330502 0.16544,0.479737 0.29781,0.958035 0.29768,1.471404 0.0592,0.544544 0.1879,1.083061 0.18886,1.631161 -1.3e-4,0.588238 -4e-5,1.176473 -5.3e-4,1.76471 0.003,0.593889 0.008,1.18785 -0.002,1.781704 -0.01,0.587661 -0.0197,1.17892 -0.12538,1.758826 -0.11177,0.494199 -0.23513,0.989618 -0.40202,1.467464 -0.24253,0.53763 -0.52198,1.056632 -0.77573,1.588754 -0.25503,0.521822 -0.5823,0.995963 -0.89433,1.484506 -0.28591,0.511915 -0.66584,0.964911 -1.02416,1.427114 -0.35881,0.46712 -0.69497,0.939758 -0.94244,1.476968 -0.27,0.500846 -0.58051,0.981051 -0.94788,1.416563 -0.37596,0.46712 -0.79182,0.897306 -1.17291,1.360149 -0.34571,0.437409 -0.67829,0.891289 -1.10076,1.259507 -0.53511,0.443727 -1.11782,0.838438 -1.74068,1.148543 -0.65441,0.304186 -1.31238,0.592195 -2.01941,0.755597 -0.7395,0.198316 -1.47659,0.405834 -2.21919,0.592487 -0.88303,0.216064 -1.76852,0.418806 -2.65458,0.62218 -0.88922,0.20246 -1.77163,0.42898 -2.6545,0.65698 -0.83733,0.19596 -1.66446,0.42894 -2.50038,0.62976 -0.95493,0.23742 -1.91164,0.46463 -2.87683,0.65735 -0.82919,0.17457 -1.66342,0.33387 -2.47679,0.57454 -0.79219,0.22335 -1.58894,0.43013 -2.37412,0.67759 -0.71617,0.17535 -1.44093,0.31392 -2.15065,0.51451 -0.70016,0.17781 -1.40576,0.33376 -2.12325,0.42426 -0.97371,0.18137 -1.92242,0.47232 -2.89913,0.63964 -0.99343,0.17969 -1.98227,0.37549 -2.96443,0.60985 -0.81283,0.17307 -1.63167,0.31555 -2.44271,0.49718 -0.746752,0.14377 -1.488009,0.31715 -2.241177,0.42692 -0.914381,0.12531 -1.821066,0.29568 -2.730923,0.44965 -0.878615,0.14073 -1.760868,0.25586 -2.649241,0.31355 -0.704321,0.0524 -1.407756,0.0286 -2.109505,-0.0553 -0.657333,-0.0774 -1.311902,-0.17756 -1.968733,-0.25859 -0.810453,-0.14762 -1.603465,-0.36814 -2.403617,-0.56204 -0.774827,-0.18738 -1.553419,-0.35598 -2.337028,-0.50275 -1.079661,-0.246 -2.150523,-0.52955 -3.211526,-0.84655 -1.667316,-0.4745 -3.338126,-0.93986 -4.984705,-1.48309 -1.256678,-0.41814 -2.501018,-0.88253 -3.7891,-1.19736 -1.032359,-0.2727 -2.061027,-0.55807 -3.081187,-0.87383 -1.137105,-0.3328 -2.267693,-0.68588 -3.437273,-0.89232 -1.150652,-0.29258 -2.29729,-0.605072 -3.42704,-0.970872 -0.89078,-0.300124 -1.777105,-0.610057 -2.622084,-1.025943 -0.315497,-0.151992 -0.627912,-0.309761 -0.940572,-0.467479 -0.08949,-0.04514 -0.353568,-0.188817 -0.26715,-0.138035 4.591809,2.698299 4.075731,2.389349 2.898986,1.681096 -0.457406,-0.335169 -0.940755,-0.63677 -1.427787,-0.925925 -1.205446,-0.701405 -2.409266,-1.405612 -3.616343,-2.104213 -0.07409,-0.04288 -0.300969,-0.163182 -0.226981,-0.120126 1.058622,0.61604 4.25114,2.435085 3.181054,1.839177 -1.2103,-0.673989 -2.390622,-1.400948 -3.601747,-2.073452 -0.607401,-0.337275 9.869181,5.688162 -0.38759,-0.214114 -0.394251,-0.201801 -0.821706,-0.321303 -1.233067,-0.482942 -0.660919,-0.210224 -1.293466,-0.488307 -1.927876,-0.767564 -1.017191,-0.45348 -2.037593,-0.898628 -3.067047,-1.32375 -1.145511,-0.482759 -2.307069,-0.921443 -3.463756,-1.376164 -1.165265,-0.459822 -2.339933,-0.916117 -3.556204,-1.222425 -0.887293,-0.2026 -1.768715,-0.43007 -2.660009,-0.613889 -0.871548,-0.157581 -1.748359,-0.276746 -2.631951,-0.342519 -1.103204,-0.0938 -2.216441,-0.101497 -3.314655,0.0593 -1.347491,0.243503 -2.692151,0.498228 -4.024336,0.816991 -1.132949,0.2526 -2.272563,0.470373 -3.414427,0.678799 -1.027374,0.192555 -2.059758,0.37942 -3.060741,0.685329 -1.107222,0.365619 -2.190843,0.791506 -3.280829,1.20383 -1.026336,0.337426 -2.080601,0.58085 -3.158604,0.679871 -0.711023,0.07 -1.42444,0.156204 -2.138905,0.163121 -0.850667,-0.05472 -1.702549,-0.13988 -2.52949,-0.356894 -0.640238,-0.153202 -1.3029492,-0.260617 -1.8925187,-0.567193 -1.381044,-0.749858 0.0023,-0.0024 2.7447137,1.599774 0.104992,0.06134 -0.21898,-0.106868 -0.321879,-0.171656 -0.196479,-0.123709 -0.379414,-0.26793 -0.563686,-0.409181 -0.0845,-0.06477 -0.164138,-0.135633 -0.246208,-0.203449 C 9.9283773,93.473787 9.4847414,92.996267 9.1899421,92.365329 8.8751012,91.727156 8.6326474,91.047616 8.4763135,90.353413 8.3197387,89.762826 8.2563792,89.148289 8.2986408,88.538345 c 0.031404,-0.573611 0.066964,-1.157909 0.3216931,-1.683882 0.2603915,-0.481859 0.6236269,-0.887524 1.0508443,-1.231382 0.6337088,-0.474424 1.3503568,-0.79435 2.0985228,-1.048975 z"
       sodipodi:nodetypes="ccccccccccccccccccccccssccssssccscccccccccccccccccccccccccccccccccccccccccccccccccscccccccccccccccccccccccccccccccccccccccccccccccssccsssscccccccccccccccccssscccccccc" /><path
       style="fill:#1a1a1a;stroke:#ffffff;stroke-width:2;stroke-opacity:0"
       id="path8"
       d="m 265.74998,98.214893 c -0.83769,-0.461388 -1.70427,-0.853953 -2.60054,-1.186931 -0.9904,-0.361895 -1.99837,-0.644949 -3.0373,-0.82192 -1.07217,-0.200409 -2.14933,-0.374373 -3.22767,-0.539864 -0.95708,-0.173715 -1.9185,-0.308557 -2.86895,-0.518295 -0.9541,-0.192326 -1.91908,-0.33065 -2.87072,-0.534808 -1.1653,-0.190158 -2.34902,-0.323887 -3.52987,-0.359912 -1.34077,-0.0056 -2.67945,-0.09654 -4.01897,-0.148527 -0.86166,-0.03077 -1.72372,-0.04434 -2.58588,-0.04707 -0.82449,0.02066 -1.64935,-0.06612 -2.46353,-0.191797 -1.02227,-0.101391 -2.03569,-0.266292 -3.0558,-0.383333 -1.09287,-0.158856 -2.18007,-0.353949 -3.27451,-0.50387 -0.87583,-0.124264 -1.76257,-0.08481 -2.64084,-0.165063 -0.90511,-0.09243 -1.81339,-0.148275 -2.72224,-0.186494 -0.6481,0.02625 -1.27876,-0.120709 -1.91954,-0.187349 -0.74464,-0.04216 -1.47781,-0.18723 -2.21371,-0.3043 -0.87244,-0.153604 -1.72422,-0.393938 -2.58997,-0.575815 -0.58878,-0.06135 -1.16578,-0.218001 -1.75755,-0.258472 -0.24291,-0.01662 -0.78035,-0.0013 -1.02153,0.0031 -1.16247,0.04554 -2.32528,0.07476 -3.48852,0.09026 -0.8195,0.0086 -1.63906,0.006 -2.45859,0.0032 -0.62465,-0.0039 -1.2493,-5.29e-4 -1.87393,0.0058 -1.04262,0.0048 -2.08525,0.0028 -3.12788,0.0045 -1.59337,0.0026 -3.18646,0.03614 -4.7792,-0.01527 -1.67799,-0.03875 -3.34574,-0.228139 -5.01851,-0.348332 -0.94009,-0.106534 -1.8738,-0.261098 -2.81686,-0.340389 -0.77568,-0.06004 -1.55033,0.06946 -2.32338,0.129591 -0.88451,0.06166 -1.77132,0.07349 -2.6576,0.08172 -0.90997,0.04312 -1.81723,0.146193 -2.72887,0.193336 -0.78774,-0.0021 -1.5672,0.09558 -2.3377,0.25313 -1.03496,0.190489 -2.07341,0.358994 -3.1122,0.528669 -1.10465,0.18197 -2.2263,0.210614 -3.34323,0.234074 -0.79174,0.0122 -1.58357,0.0056 -2.37532,2.62e-4 -0.89781,0.0032 -1.79556,0.0094 -2.69339,0.0067 -0.66558,0.02649 -1.31654,-0.13398 -1.97487,-0.205716 -0.50855,-0.06395 -1.0236,-0.0042 -1.5278,-0.09295 -0.34415,-0.02445 -0.65294,-0.136371 -0.97357,-0.250145 0,0 3.13506,2.429148 3.13506,2.429148 v 0 c 0.33182,0.0944 0.67111,0.147545 1.01426,0.183899 0.5102,0.0291 1.02273,0.02843 1.53015,0.09704 0.65436,0.08448 1.30871,0.183737 1.97136,0.145436 0.90639,-0.0019 1.8127,0.0052 2.71906,0.01257 0.78312,-0.0026 1.56625,-0.01069 2.3491,-0.03267 1.1286,-0.03473 2.26231,-0.07545 3.37588,-0.277315 1.04533,-0.175606 2.09229,-0.340595 3.13715,-0.518726 0.76009,-0.121034 1.521,-0.21676 2.29229,-0.225756 0.91198,-0.05568 1.82201,-0.151349 2.73559,-0.16769 0.88927,-0.01566 1.77852,-0.04728 2.66593,-0.107945 0.76471,-0.06286 1.53244,-0.158824 2.29915,-0.06509 0.92521,0.08666 1.84497,0.222507 2.77125,0.298726 1.66551,0.121401 3.32862,0.282977 4.99948,0.313949 1.61171,0.04411 3.22414,0.0305 4.83635,0.0426 1.04701,0.0019 2.09403,-1.59e-4 3.14103,0.0051 0.63059,0.0065 1.26121,0.01119 1.89183,0.0061 0.80873,-0.0059 1.61739,-0.01797 2.42599,-0.03366 1.16537,-0.02154 2.33048,-0.05372 3.49576,-0.07873 0.92712,0.01188 1.83729,0.14623 2.74444,0.336671 0.85966,0.195702 1.71733,0.399929 2.58732,0.547061 0.74633,0.123883 1.49097,0.255579 2.24671,0.307755 0.64088,0.0854 1.28061,0.167677 1.92915,0.157136 0.90317,0.03788 1.8044,0.103116 2.70429,0.189143 0.87505,0.05098 1.75421,0.05565 2.6234,0.182761 1.09415,0.151942 2.18137,0.348377 3.27591,0.498004 1.01841,0.13489 2.03781,0.257783 3.05636,0.391176 0.83224,0.103253 1.66652,0.186417 2.50658,0.158215 0.85199,0.005 1.70408,0.01146 2.55565,0.04061 1.33307,0.04583 2.66538,0.114975 3.99911,0.138933 1.1806,0.07493 2.36299,0.200324 3.52428,0.429564 0.95492,0.178695 1.9135,0.338778 2.86503,0.535287 0.95664,0.192505 1.92204,0.331867 2.88278,0.501883 1.07194,0.166666 2.14471,0.331949 3.20921,0.541485 1.02367,0.208754 2.02245,0.51335 2.99906,0.884989 0.89307,0.365001 1.76077,0.777078 2.60815,1.239098 z" /><path
       style="fill:#1a1a1a;stroke:#ffffff;stroke-width:2;stroke-opacity:0"
       id="path9"
       d="m 26.728859,142.12541 c 0.323265,-0.7185 0.64408,-1.43797 0.984779,-2.14836 0.22583,-0.43062 0.497303,-0.80816 0.855057,-1.13556 0.560123,-0.47426 1.053541,-1.01234 1.542928,-1.55709 0.416327,-0.49144 0.859703,-0.95868 1.265446,-1.45911 0.412279,-0.44355 0.83334,-0.87662 1.277001,-1.28948 0.739537,-0.74023 1.545447,-1.4081 2.355475,-2.06874 0.757171,-0.68516 1.640043,-1.19603 2.478836,-1.76895 0.696208,-0.44891 1.349922,-0.95728 2.021922,-1.44045 0.53685,-0.36233 1.108831,-0.67584 1.694254,-0.95271 0.538467,-0.24475 1.099815,-0.45217 1.670587,-0.60954 0.740219,-0.2042 1.478894,-0.41511 2.225619,-0.59502 0.879602,-0.17087 1.744232,-0.40642 2.623566,-0.57771 0.673389,-0.14196 1.353876,-0.25994 2.025769,-0.40929 0.716595,-0.16575 1.430584,-0.33071 2.160863,-0.42495 0.58801,-0.15371 1.189654,-0.23554 1.794655,-0.28045 0.675693,-0.13126 1.348849,-0.27409 2.031228,-0.3668 0.791834,-0.0888 1.570003,-0.25579 2.36379,-0.33279 0.712338,-0.10664 1.412732,-0.26847 2.121413,-0.39427 0.664517,-0.11922 1.319909,-0.26375 1.993016,-0.33131 0.733859,-0.16378 1.480958,-0.22796 2.230038,-0.26699 1.012661,-0.0768 2.020719,7.9e-4 3.029768,0.0824 0.815861,0.0801 1.634884,0.10695 2.453997,0.12459 0.748419,-0.0332 1.485172,0.0998 2.228178,0.16648 0.808374,0.15577 1.627854,0.23282 2.44847,0.28461 0.618395,0.0362 1.237896,0.0426 1.857166,0.0446 0.583623,-5.3e-4 1.167236,-0.004 1.750862,-0.004 0.647366,0.0242 1.288404,0.14004 1.936488,0.18602 0.677513,-10e-4 1.339633,0.137 2.009132,0.22122 0.595291,0.0293 1.180158,0.12376 1.76993,0.20376 0.632254,0.0374 1.246452,0.18872 1.872221,0.27724 0.515897,0.20698 1.082312,0.1881 1.607809,0.33951 0.529177,0.15067 1.083924,0.14387 1.619033,0.25269 0.59123,0.1008 1.183635,0.17579 1.753616,0.36858 0.58887,0.18849 1.151583,0.44705 1.743901,0.62789 0.535635,0.1302 1.052668,0.32565 1.585184,0.46594 0.596554,0.2409 1.198478,0.46567 1.803811,0.68308 0.57114,0.17053 1.121785,0.39958 1.696722,0.56013 0.617424,0.19212 1.205185,0.46396 1.820818,0.6631 0.564914,0.27191 1.190813,0.39368 1.758663,0.6505 0.52263,0.14836 0.98097,0.43176 1.46238,0.67289 0.28524,0.10345 0.55205,0.24923 0.82255,0.38497 0,0 -3.08759,-2.4669 -3.08759,-2.4669 v 0 c -0.27291,-0.13214 -0.549074,-0.25682 -0.820621,-0.39175 -0.481293,-0.2533 -0.977429,-0.46322 -1.490631,-0.64339 -0.592836,-0.19588 -1.176351,-0.41563 -1.761509,-0.6332 -0.609483,-0.22454 -1.210484,-0.47195 -1.834618,-0.65519 -0.56257,-0.18596 -1.120222,-0.3867 -1.681429,-0.57678 -0.604986,-0.22789 -1.209768,-0.45924 -1.822895,-0.66332 -0.522274,-0.16699 -1.051361,-0.31194 -1.574554,-0.47608 -0.582477,-0.20905 -1.154403,-0.45083 -1.752182,-0.61462 -0.589314,-0.14231 -1.187122,-0.23376 -1.784781,-0.33355 -0.540218,-0.0688 -1.080929,-0.13402 -1.609288,-0.27194 -0.5451,-0.0849 -1.080916,-0.20191 -1.620161,-0.31643 -0.622191,-0.10133 -1.242475,-0.20985 -1.870622,-0.26951 -0.590479,-0.0835 -1.181992,-0.1439 -1.775161,-0.20383 -0.669346,-0.0907 -1.337763,-0.17843 -2.013784,-0.20206 -0.652888,-0.0637 -1.303419,-0.17979 -1.961319,-0.16254 -0.585158,10e-4 -1.17031,2.5e-4 -1.755465,-0.002 -0.608947,-0.003 -1.218174,-0.012 -1.825937,-0.0535 -0.819513,-0.062 -1.631458,-0.17589 -2.444399,-0.29429 -0.748112,-0.0757 -1.493694,-0.16866 -2.247855,-0.14532 -0.808352,-0.0187 -1.615545,-0.0613 -2.421532,-0.12681 -1.023417,-0.0726 -2.047468,-0.12489 -3.072903,-0.0483 -0.757412,0.0499 -1.506783,0.14654 -2.254464,0.27713 -0.674026,0.0891 -1.335193,0.24145 -2.005071,0.35578 -0.69977,0.13643 -1.398344,0.28059 -2.106297,0.36954 -0.788829,0.099 -1.566416,0.26715 -2.357258,0.35203 -0.682437,0.10109 -1.358323,0.24135 -2.041723,0.33569 -0.606071,0.0669 -1.203352,0.18047 -1.800527,0.30238 -0.729813,0.1204 -1.447342,0.297 -2.172039,0.44369 -0.675047,0.12507 -1.340842,0.28778 -2.014931,0.41756 -0.87847,0.18985 -1.751616,0.40377 -2.630628,0.59142 -0.754991,0.18996 -1.508572,0.38625 -2.257922,0.59741 -0.579888,0.18933 -1.157227,0.39566 -1.704981,0.66572 -0.592502,0.30532 -1.180549,0.62473 -1.723675,1.01297 -0.663181,0.48549 -1.306785,0.99814 -2.00092,1.44018 -0.846547,0.57616 -1.721657,1.11398 -2.481778,1.80724 -0.817891,0.6691 -1.633059,1.34103 -2.396914,2.07234 -0.457932,0.42444 -0.902308,0.86296 -1.317029,1.33014 -0.401325,0.49388 -0.828667,0.96598 -1.240544,1.4508 -0.483781,0.53755 -0.982255,1.05794 -1.542714,1.51744 -0.385636,0.36866 -0.68512,0.79195 -0.923162,1.27049 -0.324818,0.71391 -0.625695,1.43799 -0.987686,2.13464 z" /><path
       style="fill:#1a1a1a;stroke:#ffffff;stroke-width:2;stroke-opacity:0"
       id="path10"
       d="m 135.4666,136.15273 c 0.82764,0.28143 1.65183,0.54532 2.51255,0.70754 0.66483,0.17304 1.34005,0.29187 2.02536,0.33638 0.53418,0.0135 1.05031,0.18067 1.56392,0.31459 0.56859,0.19899 1.07384,0.51038 1.65347,0.68321 0.87072,0.2944 1.79063,0.39289 2.68602,0.58775 0.94124,0.1831 1.88123,0.37646 2.832,0.5057 1.00775,0.15798 1.99813,0.40342 3.00197,0.58075 1.03599,0.2679 2.07449,0.38777 3.13947,0.28606 1.05796,-0.14082 2.10957,-0.33181 3.16112,-0.51629 0.84958,-0.0927 1.68201,-0.28605 2.52848,-0.3984 0.97488,-0.0703 1.95045,-0.15311 2.91855,-0.2901 1.17936,-0.14898 2.34441,-0.41332 3.49163,-0.72192 0.95868,-0.2242 1.87745,-0.58977 2.83662,-0.80851 1.06368,-0.27335 2.13031,-0.53475 3.21349,-0.71816 1.21544,-0.22604 2.43639,-0.41605 3.6423,-0.69098 1.08271,-0.25244 2.18788,-0.37855 3.27318,-0.61874 0.92846,-0.22126 1.85488,-0.45181 2.78305,-0.67566 1.06097,-0.2441 2.07643,-0.63675 3.11882,-0.9427 1.17676,-0.34454 2.34177,-0.72582 3.52757,-1.03906 0.92583,-0.26279 1.84505,-0.54753 2.7752,-0.79481 0.74645,-0.20356 1.50393,-0.34906 2.26157,-0.50191 1.02162,-0.24001 2.0443,-0.47947 3.07254,-0.69068 1.29411,-0.30374 2.58463,-0.61035 3.88818,-0.87231 1.42262,-0.305 2.85246,-0.57899 4.28767,-0.81815 1.43309,-0.19328 2.86471,-0.41881 4.27273,-0.75068 1.25548,-0.28349 2.47035,-0.72264 3.68957,-1.13114 1.03142,-0.4264 2.10763,-0.71906 3.1616,-1.07926 0.80029,-0.30728 1.60574,-0.60069 2.3886,-0.95072 0.69107,-0.27182 1.40222,-0.49184 2.10973,-0.71797 0.68093,-0.25882 1.37398,-0.47926 2.05206,-0.74651 0.76845,-0.28416 1.53969,-0.55327 2.31984,-0.80246 0.73316,-0.22128 1.47273,-0.41389 2.19571,-0.6656 0.53595,-0.14842 1.03274,-0.39981 1.53779,-0.62654 0.5601,-0.19318 1.08088,-0.47586 1.62041,-0.71638 0.46962,-0.23375 0.88788,-0.547 1.32174,-0.83865 0.55909,-0.38986 1.10033,-0.80263 1.64904,-1.20697 0.64875,-0.44251 1.3037,-0.87881 1.9762,-1.28455 0.44845,-0.28797 0.88042,-0.6157 1.25291,-0.99818 0.33045,-0.29555 0.70714,-0.52795 1.05369,-0.80467 0.33714,-0.29814 0.16426,-0.15461 0.51858,-0.43066 0,0 -3.34215,-2.10311 -3.34215,-2.10311 v 0 c -0.35949,0.28544 -0.1841,0.14446 -0.52638,0.42269 -0.36652,0.27608 -0.76355,0.51433 -1.0885,0.84191 -0.36123,0.3512 -0.75689,0.66952 -1.18735,0.93217 -0.66799,0.42858 -1.33396,0.86073 -1.98518,1.31455 -0.54749,0.40031 -1.09459,0.80106 -1.65602,1.18177 -0.41814,0.27757 -0.82392,0.57625 -1.28096,0.78924 -0.53567,0.24979 -1.07313,0.49437 -1.62199,0.71433 -0.49538,0.22705 -1.00039,0.4301 -1.51961,0.59684 -0.71362,0.25318 -1.44912,0.43732 -2.17026,0.66778 -0.7884,0.24681 -1.56213,0.5343 -2.33771,0.81861 -0.67887,0.25241 -1.36758,0.47578 -2.04712,0.72635 -0.71252,0.23869 -1.43664,0.45 -2.12541,0.75302 -0.77678,0.33199 -1.56419,0.63975 -2.35728,0.93043 -1.05293,0.34969 -2.10914,0.68606 -3.14305,1.0909 -1.20945,0.4046 -2.41803,0.82548 -3.66453,1.10285 -1.40394,0.31739 -2.82752,0.53482 -4.25207,0.73735 -1.43791,0.24975 -2.872,0.52198 -4.30005,0.82325 -1.30816,0.26069 -2.59875,0.59316 -3.90428,0.8653 -1.03089,0.21976 -2.05843,0.45485 -3.0902,0.67048 -0.76642,0.14001 -1.51997,0.33171 -2.27292,0.53127 -0.92188,0.26026 -1.83946,0.53459 -2.75814,0.80582 -1.18285,0.33226 -2.3526,0.70768 -3.53345,1.04672 -1.03447,0.31531 -2.05475,0.67903 -3.11083,0.91993 -0.92997,0.21371 -1.85406,0.45075 -2.78375,0.6651 -1.08355,0.22228 -2.18015,0.37543 -3.25625,0.63364 -1.20745,0.25647 -2.42616,0.44963 -3.63982,0.67325 -1.09044,0.20289 -2.16891,0.46261 -3.24595,0.72687 -0.94703,0.24963 -1.8667,0.59497 -2.81907,0.82755 -1.14296,0.29061 -2.29953,0.54342 -3.47277,0.67478 -0.97941,0.11656 -1.96222,0.19257 -2.94432,0.27962 -0.83903,0.13464 -1.67083,0.31097 -2.51365,0.42332 -1.04279,0.1875 -2.08889,0.37473 -3.14365,0.47789 -1.04221,0.0456 -2.05551,-0.12359 -3.06964,-0.35879 -1.0084,-0.19871 -2.01072,-0.43011 -3.02834,-0.57967 -0.94077,-0.14145 -1.8737,-0.33156 -2.80644,-0.51764 -0.8995,-0.17937 -1.81423,-0.31566 -2.67534,-0.64445 -0.55915,-0.22581 -1.08813,-0.5274 -1.68098,-0.66372 -0.52457,-0.13639 -1.05627,-0.2415 -1.59978,-0.25932 -0.67092,-0.0761 -1.33065,-0.21158 -1.98814,-0.36434 -0.8522,-0.18865 -1.6726,-0.47542 -2.4981,-0.75616 z" /><path
       style="display:inline;fill:#1a1a1a;stroke:#ffffff;stroke-width:2;stroke-opacity:0"
       id="path11"
       d="m 237.74729,116.09065 c 0.67664,-0.43318 0.99912,-0.73199 1.56323,-1.20763 0.0782,-0.0632 0.22974,-0.36313 0.30935,-0.42451 0.18055,-0.13919 0.27379,-0.14952 0.43024,-0.31556 0.14168,-0.15037 0.24141,-0.30233 0.40405,-0.43205 0.26075,-0.22425 0.49935,-0.47497 0.76562,-0.69286 0.24756,-0.23541 0.47277,-0.496 0.73123,-0.71982 0.25315,-0.27284 0.51824,-0.53373 0.77032,-0.808 0.29928,-0.26311 0.57964,-0.54343 0.8086,-0.87099 0.21972,-0.25195 0.38511,-0.54506 0.55559,-0.83131 l -3.4372,-1.9904 v 0 c -0.16467,0.27731 -0.32533,0.55873 -0.53644,0.80411 -0.22513,0.30734 -0.50981,0.55989 -0.78211,0.82457 -0.25204,0.26131 -0.50284,0.52314 -0.75865,0.78074 -0.24383,0.23463 -0.47972,0.4773 -0.72535,0.71011 -0.25572,0.23232 -0.51175,0.4643 -0.76607,0.69802 -0.32325,0.31046 -0.59164,0.67223 -0.98384,0.90911 -0.49558,0.56402 -0.98223,1.01091 -1.62331,1.43236 z"
       sodipodi:nodetypes="ccsscccccccscccccccc" /><path
       style="fill:#1a1a1a;stroke:#ffffff;stroke-width:2;stroke-opacity:0"
       id="path12"
       d="m 88.883701,105.03362 c 0.638982,-0.51798 1.240768,-1.07794 1.903118,-1.567 0.591175,-0.45329 1.216806,-0.85713 1.823061,-1.28965 0.744813,-0.51192 1.51895,-0.9789 2.260958,-1.49498 0.679111,-0.48161 1.327713,-0.998069 2.021146,-1.459992 0.674762,-0.348033 1.320898,-0.742305 1.968596,-1.138571 0.761023,-0.484616 1.57797,-0.874265 2.36447,-1.315643 0.86177,-0.51058 1.74201,-0.988187 2.61844,-1.473203 1.25171,-0.755613 2.58502,-1.359244 3.88065,-2.032013 1.22437,-0.668271 2.45011,-1.329402 3.6394,-2.05913 0.97288,-0.583433 1.87176,-1.282468 2.76355,-1.98142 0.77311,-0.5871 1.53194,-1.192199 2.29254,-1.795664 0.58279,-0.488783 1.22704,-0.898824 1.85701,-1.323665 0.71242,-0.529942 1.4334,-1.047829 2.16818,-1.547148 0.85112,-0.581777 1.7146,-1.145069 2.56954,-1.721131 0.74672,-0.526391 1.51356,-1.017466 2.23484,-1.579086 0.61124,-0.509392 1.25958,-0.973037 1.91859,-1.418267 0.83512,-0.531011 1.66404,-1.070192 2.5183,-1.570194 0.64631,-0.369236 1.22678,-0.827286 1.8138,-1.280797 0.59143,-0.498475 1.24568,-0.911987 1.83249,-1.415913 0.47847,-0.406715 0.98826,-0.773851 1.50191,-1.13461 0.50313,-0.379616 1.07041,-0.654651 1.63102,-0.936167 0.43406,-0.155504 0.83736,-0.379347 1.28841,-0.484249 0.42408,-0.160072 0.86267,-0.24607 1.29012,-0.394297 0.40614,-0.127776 0.83343,-0.144246 1.25553,-0.158814 1.52587,0.278545 3.8175,1.8874 -2.054,-1.444347 0.18165,0.109051 0.10195,0.06213 0.23853,0.141676 0,0 3.63596,1.620801 3.63596,1.620801 v 0 c -0.0591,-0.241819 -0.004,-0.127762 -0.17724,-0.335659 -1.31157,-0.74948 -3.06546,-2.308981 -4.86395,-2.296194 -0.44864,0.03235 -0.89634,0.08695 -1.32054,0.246031 -0.42184,0.140401 -0.86045,0.224911 -1.27865,0.37865 -0.45229,0.151712 -0.88362,0.361847 -1.32098,0.550828 -0.57625,0.28743 -1.13307,0.614985 -1.65762,0.989023 -0.52181,0.367245 -1.03686,0.744731 -1.51231,1.171446 -0.5877,0.496824 -1.24095,0.904959 -1.83672,1.391806 -0.56897,0.443188 -1.12716,0.898633 -1.75606,1.257874 -0.86069,0.508958 -1.70075,1.050912 -2.54851,1.580872 -0.66286,0.451795 -1.31011,0.925941 -1.92335,1.443861 -0.71883,0.550468 -1.48591,1.029316 -2.2194,1.559568 -0.85345,0.579329 -1.71144,1.152085 -2.5714,1.72167 -0.73396,0.50188 -1.45517,1.02168 -2.17848,1.53833 -0.63711,0.430082 -1.28543,0.848902 -1.86545,1.355767 -0.75518,0.607036 -1.51498,1.208561 -2.28352,1.798595 -0.87528,0.695164 -1.76697,1.375055 -2.72592,1.95208 -1.17569,0.730549 -2.39256,1.386332 -3.61114,2.041991 -1.30416,0.67012 -2.62522,1.308351 -3.90285,2.029483 -0.882424,0.4816 -1.770733,0.951976 -2.635738,1.464533 -0.792972,0.438075 -1.6085,0.838022 -2.372669,1.326369 -0.656926,0.38989 -1.324412,0.761164 -1.979496,1.153292 -0.693963,0.464537 -1.34162,0.986798 -2.025026,1.465726 -0.744418,0.514718 -1.518645,0.983959 -2.265442,1.495172 -0.615394,0.42648 -1.243904,0.83425 -1.830697,1.30073 -0.658974,0.50894 -1.269471,1.07481 -1.933723,1.57652 z" /><path
       style="display:inline;fill:#1a1a1a;stroke:#ffffff;stroke-width:2;stroke-opacity:0"
       id="path13"
       d="m 286.94128,91.650255 c 0.55737,0.31092 1.20293,0.375457 1.78896,0.599551 0.44622,0.181613 0.92247,0.228873 1.3985,0.25454 0.3623,0.04725 0.86411,0.110906 1.19367,0.268322 0.39963,0.117644 0.79391,0.253577 1.20073,0.348528 0.4802,0.0692 0.95303,0.108746 1.42698,0.211333 0.48374,0.10051 0.97766,0.125706 1.47005,0.14124 0.40434,0.137049 0.82413,0.192283 1.24767,0.223644 0.47466,7.94e-4 0.93147,0.02826 1.3956,0.121214 0.47834,0.105664 0.94168,0.13358 1.42063,0.04036 0,0 -3.23752,-2.283278 -3.23752,-2.283278 v 0 c -0.4521,0.03759 -0.89776,-0.06161 -1.34226,-0.135268 -0.46943,-0.0674 -0.9439,-0.04726 -1.41486,-0.10282 -0.42191,-0.05668 -0.83272,-0.176053 -1.2578,-0.20293 -0.48213,-0.02928 -0.96208,-0.08194 -1.4341,-0.188277 -0.47022,-0.08485 -0.95345,-0.09315 -1.41338,-0.234072 -0.39891,-0.121631 -0.80044,-0.232465 -1.19496,-0.368049 -0.41264,-0.07711 -0.81886,-0.190444 -1.24198,-0.192513 -0.45903,-0.05304 -0.90326,-0.159864 -1.33702,-0.321392 -0.61502,-0.16406 -1.21229,-0.369935 -1.80697,-0.596294 z" /><path
       style="display:inline;fill:#1a1a1a;stroke:#ffffff;stroke-width:2;stroke-opacity:0"
       id="path14"
       d="m 243.23186,111.01293 c 0.47406,-0.52378 1.0937,-0.99503 1.51456,-1.56395 0.30753,-0.45349 0.51759,-0.98218 0.43852,-1.51201 -0.0345,-0.23118 -0.46572,-2.35168 -3.34196,-1.98462 l -0.36956,0.0658 -0.29905,0.12816 c -0.35613,0.15263 0.26741,0.0677 0.70068,0.30414 -0.021,0.46131 0.15351,0.90108 -0.10612,1.29923 -0.40377,0.55765 -0.90306,1.04209 -1.40218,1.51368 z"
       sodipodi:nodetypes="ccsccscccc" /><path
       style="fill:#1a1a1a;stroke:#ffffff;stroke-width:2;stroke-opacity:0"
       id="path22"
       d="m 18.881604,69.812113 c -0.01234,-4.5e-5 -0.02489,0.0021 -0.037,-1.35e-4 -0.01708,-0.0033 -0.03302,-0.01093 -0.04952,-0.01638 -0.02961,-0.0067 -0.05895,-0.01474 -0.08882,-0.02027 -0.03677,-0.0068 -0.07435,-0.0089 -0.110945,-0.01662 -0.0856,-0.01799 -0.169143,-0.04463 -0.25377,-0.06673 -0.13664,-0.03161 -0.276241,-0.04562 -0.414394,-0.06763 -0.04335,-0.0069 -0.08585,-0.01889 -0.129369,-0.02466 -0.08967,-0.01193 -0.177669,-0.01048 -0.267863,-0.01185 -0.21866,0.01823 -0.437959,-0.0093 -0.656577,-0.0052 -0.113002,0.0021 -0.225573,0.01455 -0.338356,0.02188 -0.21285,-0.0028 -0.419461,0.04221 -0.627273,0.07997 -0.190157,0.03071 -0.09545,0.01429 -0.284125,0.04925 -0.04745,0.0085 -0.09528,0.01524 -0.142355,0.02566 -0.04829,0.01069 -0.09552,0.02577 -0.143532,0.03766 -0.0488,0.01207 -0.24888,0.05688 -0.297439,0.07044 -0.02933,0.0082 -0.30276,0.09622 -0.327283,0.104081 -0.311461,0.08842 -0.626007,0.169905 -0.945051,0.225944 -0.04471,0.01058 -0.08985,0.0195 -0.134118,0.03178 -0.04443,0.01233 -0.08724,0.03015 -0.131792,0.04201 -0.04516,0.01204 -0.09139,0.0196 -0.137035,0.02959 -0.13063,0.02861 -0.260705,0.05913 -0.390665,0.09063 -0.152788,0.03019 -0.307523,0.04749 -0.460566,0.0763 -0.0572,0.01077 -0.113809,0.02463 -0.171114,0.03485 -0.116215,0.02072 -0.233255,0.03654 -0.349699,0.05593 -0.411276,0.09504 -0.834652,0.110699 -1.252156,0.165084 -0.0723,0.0066 -0.144636,0.01278 -0.216892,0.01982 -0.246212,0.024 -0.491228,0.0497 -0.7386001,0.05976 -0.2595559,0.01056 -0.3010773,0.007 -0.5599969,0.0046 -0.089623,1.95e-4 -0.179251,0.0016 -0.2688704,5.29e-4 -0.1688314,1.95e-4 -0.3374427,-0.01066 -0.5062262,-0.01244 -0.2443957,-0.0026 -0.4892215,0.0058 -0.7335015,0.01185 -0.3271112,-0.0073 -0.6554517,-0.02749 -0.9777597,-0.08687 -0.122201,-0.02252 -0.3087243,-0.06845 -0.4305779,-0.09744 -0.2375617,-0.04764 -0.4741791,-0.114967 -0.6909189,-0.225226 -0.021209,-0.0108 -0.2530856,-0.140748 -0.2716321,-0.151122 -0.046726,-0.02556 -0.093571,-0.05092 -0.1401778,-0.07671 -0.047159,-0.02609 -0.093515,-0.05365 -0.1411174,-0.07892 -0.046198,-0.02453 -0.094707,-0.04466 -0.1402136,-0.07045 -0.04659,-0.0264 -0.1821505,-0.112641 -0.135737,-0.08593 2.5453093,1.464786 4.0783536,2.369812 2.8289265,1.632876 C 7.5531244,71.526981 7.4886504,71.486143 7.424395,71.444963 7.245021,71.330007 7.12023,71.251672 6.9457598,71.126495 6.7338143,70.974428 6.5310667,70.809328 6.3288486,70.644755 5.8964213,70.311088 5.4710972,69.969607 5.0220146,69.658308 4.9398041,69.603791 4.8573819,69.549591 4.7753836,69.494756 4.5563689,69.348294 4.3391486,69.19877 4.1171643,69.056786 2.9658408,68.320382 1.7506957,67.688869 0.56496775,67.00925 0.32672017,66.879816 0.07893596,66.769736 -0.16693921,66.656026 c -0.0732719,-0.03389 -0.14543274,-0.07021 -0.21933914,-0.102685 -0.54958141,-0.241522 0.11364674,0.06582 -0.39670873,-0.173627 -0.0576792,-0.02657 -0.11496958,-0.054 -0.1730375,-0.07971 -0.11289482,-0.04998 -0.21479192,-0.0884 -0.32670892,-0.140351 -0.1621391,-0.07526 -0.3188905,-0.162621 -0.4776336,-0.244657 -0.1542057,-0.07871 -0.3056989,-0.16137 -0.4676658,-0.223023 0,0 3.05321383,2.406658 3.05321383,2.406658 v 0 c 0.11116259,0.05197 0.22480837,0.09835 0.33482817,0.15281 0.3169975,0.15353 0.6395555,0.294653 0.9650665,0.429186 0.4203262,0.166973 0.8321964,0.355431 1.2285059,0.573818 -0.9419456,-0.545269 -1.8844887,-1.089507 -2.82583692,-1.635808 -0.0758441,-0.04401 0.1540502,0.08393 0.22930511,0.128942 0.30970211,0.185254 0.60623121,0.393364 0.90687161,0.592556 0.2228187,0.149786 0.4493958,0.293875 0.6656017,0.453252 0.1888881,0.139243 0.2544703,0.195554 0.437626,0.342416 0.067615,0.05422 0.1353373,0.108299 0.2030058,0.162446 0.2169745,0.168566 0.4340315,0.337251 0.6494465,0.507799 0.187076,0.148114 0.3704024,0.301546 0.5727464,0.429173 1.2872069,0.907021 2.69133,1.641165 4.091002,2.360559 0.1248484,0.05481 0.1727351,0.08006 0.3043767,0.120486 0.2156391,0.06622 0.4423063,0.08281 0.6619071,0.13089 0.2161309,0.03137 0.431724,0.0582 0.6499349,0.07095 0.2006136,0.01172 0.2777556,0.01 0.4787576,0.0097 0.08494,-1.05e-4 0.169888,-7.93e-4 0.254832,-0.0011 0.255569,0.0061 0.511916,0.01527 0.767601,0.01106 0.156445,-0.0026 0.312663,-0.01326 0.469065,-0.01773 0.08871,-0.0026 0.177451,-0.0036 0.266176,-0.0053 0.281542,-0.01286 0.562659,-0.01857 0.844424,-0.0241 0.168774,-0.0033 0.365605,-0.0059 0.534975,-0.01884 0.07308,-0.0056 0.145745,-0.01572 0.218617,-0.02357 0.435199,-0.04014 0.867764,-0.103825 1.302752,-0.146373 0.537889,-0.07145 -0.145248,0.02122 0.363996,-0.05373 0.226146,-0.03328 0.453821,-0.05551 0.678549,-0.09855 0.15897,-0.02965 0.13553,-0.02222 0.283016,-0.06064 0.08553,-0.02228 0.169348,-0.05103 0.255246,-0.07187 0.416079,-0.100941 -0.08755,0.03502 0.267813,-0.06302 0.302042,-0.08966 0.601512,-0.187783 0.905983,-0.26915 0.308057,-0.0701 0.619122,-0.125802 0.929886,-0.181806 0.140733,-0.02331 0.280479,-0.05307 0.42204,-0.07106 0.103097,-0.0131 0.181514,-0.01823 0.285679,-0.02582 0.05048,-0.0037 0.100974,-0.0071 0.151462,-0.01064 0.27688,-0.0072 0.0397,-0.0046 0.330982,0.0029 0.220752,0.0056 0.442997,2.64e-4 0.660931,0.04362 0.09102,0.01545 0.181544,0.03378 0.272635,0.04882 0.03881,0.0064 0.07816,0.0094 0.116914,0.01614 0.133854,0.02339 0.265663,0.05899 0.395688,0.09789 0.05391,0.01453 0.215631,0.05755 0.264807,0.07318 0.07989,0.0254 0.157253,0.05834 0.23714,0.08374 0.03768,0.01199 0.07633,0.02074 0.113979,0.03283 0.01708,0.0055 0.03335,0.0132 0.05003,0.01982 z" /></g></svg>
